<svg xmlns="http://www.w3.org/2000/svg" width="200" height="200" fill="none">
  <path fill="#FF7F00" d="M142.25 45.999c3.181 3.192 3.181 8.367 0 11.559l-10.079 10.114-3.156 14.076-13.163 2.3-10.08 10.114a8.126 8.126 0 0 1-11.52 0L57.774 57.558c-3.181-3.192-3.181-8.367 0-11.56L94.252 9.395a8.126 8.126 0 0 1 11.52 0L142.25 46Z"/>
  <path fill="#9B9FA0" d="M59.694 47.925 57.774 46 94.252 9.394l1.92 1.927-36.478 36.604Zm0 7.706 36.479 36.605a5.417 5.417 0 0 0 7.679 0l10.687-10.724.846-.149 11.383-1.988 2.926-13.07 10.637-10.673a5.464 5.464 0 0 0 0-7.707l-36.479-36.604a5.417 5.417 0 0 0-7.68 0l-1.92-1.927.304-.29a8.125 8.125 0 0 1 10.912 0l.304.29L142.25 46c3.082 3.092 3.179 8.046.289 11.254l-.289.305-10.079 10.114-3.156 14.076-13.163 2.3-10.08 10.114a8.126 8.126 0 0 1-11.52 0L57.774 57.558l-.289-.305a8.195 8.195 0 0 1 0-10.95l.289-.304 1.92 1.926a5.462 5.462 0 0 0 0 7.706Z"/>
  <path fill="#fff" d="M45.864 57.796a8.126 8.126 0 0 1 11.52 0l10.08 10.114 14.027 3.167 2.292 13.209L93.863 94.4c3.18 3.192 3.18 8.368 0 11.56l-36.48 36.604a8.126 8.126 0 0 1-11.519 0L9.386 105.96c-3.181-3.192-3.181-8.368 0-11.56l36.478-36.604Z"/>
  <path fill="#9B9FA0" d="m47.784 140.637-1.92 1.927L9.386 105.96l1.92-1.927 36.478 36.604Zm7.68 0 36.479-36.604a5.463 5.463 0 0 0 0-7.707L81.256 85.603l-.148-.849-1.982-11.422L66.1 70.395 55.464 59.722a5.418 5.418 0 0 0-7.68 0L11.306 96.327a5.463 5.463 0 0 0 0 7.706l-1.92 1.927-.289-.305a8.195 8.195 0 0 1 0-10.95l.289-.305 36.478-36.604a8.126 8.126 0 0 1 11.216-.29l.304.29 10.08 10.114 14.027 3.167 2.292 13.209L93.863 94.4c3.18 3.192 3.18 8.368 0 11.56l-36.48 36.604-.303.29a8.126 8.126 0 0 1-10.912 0l-.304-.29 1.92-1.927a5.417 5.417 0 0 0 7.68 0Z"/>
  <path fill="#fff" d="M58.264 155.001c-3.18-3.192-3.18-8.367 0-11.559l10.08-10.114 3.156-14.076 13.163-2.3 10.08-10.114a8.125 8.125 0 0 1 11.519 0l36.479 36.604c3.181 3.192 3.181 8.367 0 11.559l-36.479 36.605a8.125 8.125 0 0 1-11.52 0l-36.478-36.605Z"/>
  <path fill="#9B9FA0" d="m140.821 153.075 1.92 1.926-36.479 36.605-1.92-1.927 36.479-36.604Zm0-7.706-36.479-36.605a5.417 5.417 0 0 0-7.68 0l-10.687 10.724-.845.149-11.383 1.988-2.927 13.07-10.636 10.673a5.464 5.464 0 0 0 0 7.707l36.479 36.604a5.417 5.417 0 0 0 7.679 0l1.92 1.927-.303.29a8.126 8.126 0 0 1-10.913 0l-.303-.29-36.479-36.605c-3.081-3.092-3.178-8.046-.289-11.254l.29-.305 10.079-10.114 3.156-14.076 13.163-2.3 10.08-10.114a8.125 8.125 0 0 1 11.519 0l36.479 36.604.288.305a8.195 8.195 0 0 1 .001 10.95l-.289.304-1.92-1.926a5.462 5.462 0 0 0 0-7.706Z"/>
  <path fill="#fff" d="M155.136 142.558a8.126 8.126 0 0 1-11.52 0l-10.079-10.114-14.028-3.167-2.292-13.209-10.079-10.114c-3.181-3.192-3.181-8.367 0-11.56l13.985-14.033 5.645-.986 1.242-5.546 15.606-16.039a8.126 8.126 0 0 1 11.52 0l36.478 36.605c3.181 3.192 3.181 8.367 0 11.559l-36.478 36.604Z"/>
  <path fill="#9B9FA0" d="m153.216 59.717 1.92-1.927 36.478 36.605-1.92 1.926-36.478-36.604Zm-7.68 0-14.944 14.995-1.577 7.036-6.58 1.15-13.378 13.424a5.464 5.464 0 0 0 0 7.706l10.687 10.724.148.848 1.982 11.422 13.025 2.937 10.637 10.673a5.416 5.416 0 0 0 7.679 0l36.479-36.604a5.462 5.462 0 0 0 0-7.707l1.92-1.926.289.305a8.195 8.195 0 0 1 0 10.949l-.289.305-36.478 36.604a8.126 8.126 0 0 1-11.216.291l-.304-.291-10.079-10.114-14.028-3.167-2.292-13.209-10.079-10.114c-3.181-3.192-3.181-8.367 0-11.56l13.985-14.033 5.645-.986 1.242-5.546 15.606-16.039.304-.29a8.125 8.125 0 0 1 10.912 0l.304.29-1.92 1.927a5.418 5.418 0 0 0-7.68 0Z"/>
  <path fill="#fff" d="M99.206 67.784c-.675.677-1.205.588-1.59-.268L86.41 42.44c-.468-1.053-.407-1.876.183-2.469l1.969-1.976c.59-.592 1.41-.653 2.46-.183L116.01 49.06c.853.386.942.917.267 1.595l-2.236 2.243c-.619.621-1.373.73-2.264.325l-5.217-2.357-7.143 7.168 2.348 5.235c.403.894.295 1.651-.323 2.272l-2.236 2.244Zm-1.969-14.562 4.528-4.544-6.201-2.751c-.732-.32-1.238-.574-1.519-.762a30.34 30.34 0 0 1-1.195-.946l-.056.057c.421.517.73.922.928 1.213.196.273.454.776.773 1.51l2.742 6.223Z"/>
</svg>
