<svg xmlns="http://www.w3.org/2000/svg" width="200" height="200" fill="none">
  <path fill="#000" d="M131.792 113.673V86.317h3.313v24.417h12.716v2.939h-16.029Zm12.44-24.418v-2.938h20.517v2.938h-8.602v24.418h-3.313V89.255h-8.602Z"/>
  <path fill="#000" d="M163.639 113.673V86.317h16.51v2.938h-13.197V98.5h12.342v2.938h-12.342v9.297h13.41v2.939h-16.723Zm-49.337-12.342v12.342h-3.153V93.156h3.046v3.206h.267a5.858 5.858 0 0 1 2.191-2.512c.979-.64 2.244-.961 3.793-.961 1.389 0 2.605.285 3.647.855 1.042.56 1.852 1.415 2.431 2.564.579 1.14.868 2.583.868 4.328v13.037h-3.152V100.85c0-1.612-.419-2.868-1.256-3.767-.837-.908-1.986-1.363-3.446-1.363-1.006 0-1.906.219-2.698.655-.784.436-1.403 1.073-1.857 1.91-.454.837-.681 1.852-.681 3.046Zm-12.079 12.342V93.156h3.153v20.517h-3.153Zm1.603-23.937a2.24 2.24 0 0 1-1.589-.627 2.015 2.015 0 0 1-.655-1.51c0-.588.218-1.09.655-1.51a2.24 2.24 0 0 1 1.589-.627c.615 0 1.14.21 1.576.628.446.418.668.921.668 1.51 0 .587-.222 1.09-.668 1.509a2.193 2.193 0 0 1-1.576.627Zm-34.295 23.937V93.156h3.046v3.206h.267c.427-1.096 1.117-1.946 2.07-2.552.953-.614 2.097-.921 3.433-.921 1.354 0 2.48.307 3.38.921.908.606 1.616 1.456 2.123 2.552h.214c.526-1.06 1.314-1.902 2.364-2.525 1.051-.632 2.311-.948 3.78-.948 1.835 0 3.335.574 4.502 1.723 1.166 1.14 1.75 2.916 1.75 5.33v13.731h-3.153V99.941c0-1.514-.414-2.595-1.242-3.246-.828-.65-1.803-.975-2.925-.975-1.443 0-2.56.437-3.353 1.31-.792.863-1.189 1.959-1.189 3.285v13.358h-3.205V99.621c0-1.167-.379-2.106-1.136-2.819-.757-.72-1.732-1.082-2.925-1.082a4.32 4.32 0 0 0-2.297.655c-.704.436-1.274 1.042-1.71 1.817-.428.765-.641 1.651-.641 2.658v12.823H69.53Zm-15.615.427c-1.71 0-3.219-.432-4.528-1.296-1.309-.872-2.333-2.101-3.072-3.686-.739-1.594-1.109-3.478-1.109-5.65 0-2.155.37-4.025 1.11-5.61.738-1.586 1.767-2.81 3.085-3.674 1.317-.864 2.84-1.295 4.568-1.295 1.336 0 2.39.222 3.166.668.783.436 1.38.934 1.79 1.495.418.553.743 1.007.974 1.363h.268V86.317h3.152v27.356h-3.045v-3.153H59.9c-.232.374-.562.846-.989 1.416-.427.561-1.037 1.064-1.83 1.51-.792.436-1.848.654-3.166.654Zm.428-2.832c1.264 0 2.333-.329 3.206-.988.872-.668 1.536-1.59 1.99-2.765.454-1.184.681-2.551.681-4.101 0-1.531-.222-2.872-.668-4.02-.445-1.158-1.104-2.057-1.977-2.699-.872-.65-1.95-.975-3.232-.975-1.336 0-2.449.343-3.34 1.029-.881.677-1.544 1.598-1.99 2.765-.436 1.158-.654 2.458-.654 3.9 0 1.461.222 2.787.668 3.981.454 1.184 1.122 2.128 2.003 2.831.89.695 1.995 1.042 3.313 1.042ZM22.3 113.673h-3.474l10.045-27.356h3.42l10.045 27.356h-3.473l-8.175-23.028h-.214L22.3 113.673Zm1.282-10.686H37.58v2.938H23.582v-2.938Z"/>
  <path stroke="#4D9BC4" stroke-linecap="round" stroke-linejoin="round" stroke-miterlimit="1.5" stroke-width=".87" d="M196 71.953c0-1.622-1.279-2.953-2.87-2.953H6.87C5.279 69 4 70.316 4 71.953v56.094C4 129.669 5.279 131 6.87 131h186.26c1.576 0 2.87-1.316 2.87-2.953V71.953Z"/>
</svg>
