<svg xmlns="http://www.w3.org/2000/svg" width="200" height="200" fill="none">
  <g clip-path="url(#a)">
    <path fill="#C60C30" d="M80.699 198.847c-17.493-3.617-33.817-11.685-46.631-23.049C1.169 146.624-8.998 100.793 8.38 60.014c4.268-10.015 11.207-20.178 19.804-29.007l7.58-7.784.534 45.56c.511 43.609.627 45.806 2.693 51.301 4.133 10.994 8.564 17.994 16.192 25.579 19.704 19.594 48.607 24.484 73.177 12.381 23.093-11.376 37.653-36.112 35.961-61.098-1.137-16.783-6.789-29.09-18.994-41.352-9.228-9.272-20.085-15.328-31.906-17.798-12.027-2.512-11.45-2.88-11.45 7.285v8.775l6.594 1.213c25.534 4.698 42.422 29.734 37.099 55-1.7 8.07-5.491 15.196-11.578 21.76-9.249 9.976-22.263 14.744-33.626 14.722-18.788-.036-34.477-10.697-42.081-26.462 0 0-1.992-4.506-2.633-7.29-3.764-16.376-1.358-50.847-1.358-50.847l-.291-50.404 2.98-1.539c1.639-.846 3.21-1.538 3.493-1.538.282 0 .64 23.15.796 51.445 0 0-3.619 37.09.853 51.304.645 2.051 1.87 5.558 1.87 5.558 3.92 7.975 10.204 14.99 18.367 18.851 6.197 2.931 9.317 4.257 18.486 4.257 5.99 0 11.296-1.888 17.402-4.692 7.198-3.305 15.455-12.069 18.507-20.071 8.407-22.046-3.299-45.765-25.851-52.379-9.216-2.703-9.029-2.852-9.029 7.155v8.741l4.425 1.181c15.947 4.26 20.813 25.602 8.294 36.568-4.423 3.875-8.409 5.587-15.38 5.587-7.45 0-14.602-4.502-18.278-11.408-2.208-4.148-2.395-8.082-2.395-9.885 0-16.646-.36-46.583-.36-46.583l-.299-51.354 2.29-.567c1.259-.313 6.348-1.085 11.31-1.717 16.825-2.144 41.718 3.354 58.441 12.908 22.799 13.025 40.051 35.4 47.234 61.262 2.471 8.896 2.746 11.483 2.746 25.794 0 14.246-.282 16.919-2.7 25.62-9.77 35.15-34.621 60.278-70.154 70.935-7.479 2.242-10.982 2.67-24.178 2.951-10.649.227-17.551-.109-22.269-1.085Z"/>
  </g>
  <defs>
    <clipPath id="a">
      <path fill="#fff" d="M0 0h200v200H0z"/>
    </clipPath>
  </defs>
</svg>
