<svg xmlns="http://www.w3.org/2000/svg" width="200" height="200" fill="none">
  <path fill="#FCA326" d="M196.3 91.7a5.626 5.626 0 0 0-3.533-4.633l-11.267-4.5a83.205 83.205 0 0 0-11.567-27.834l4.767-11.166a5.545 5.545 0 0 0-.767-5.8c-1.766-2.134-3.633-4.134-5.566-6.134-2-1.933-4-3.8-6.134-5.566a5.547 5.547 0 0 0-5.8-.767l-11.166 4.767A83.226 83.226 0 0 0 117.433 18.5l-4.5-11.267A5.623 5.623 0 0 0 108.3 3.7c-2.767-.267-5.533-.367-8.3-.367-2.767 0-5.533.1-8.3.367a5.63 5.63 0 0 0-4.633 3.533l-4.5 11.267a83.221 83.221 0 0 0-27.834 11.567L43.567 25.3a5.547 5.547 0 0 0-5.8.767c-2.134 1.766-4.134 3.633-6.134 5.566-1.933 2-3.8 4-5.566 6.134a5.546 5.546 0 0 0-.767 5.8l4.767 11.166A83.22 83.22 0 0 0 18.5 82.567l-11.267 4.5A5.63 5.63 0 0 0 3.7 91.7c-.267 2.767-.367 5.533-.367 8.3 0 2.767.1 5.533.367 8.3a5.627 5.627 0 0 0 3.533 4.633l11.267 4.5a83.224 83.224 0 0 0 11.567 27.834L25.3 156.433a5.55 5.55 0 0 0 .767 5.8c1.766 2.134 3.633 4.134 5.566 6.134 2 1.933 4 3.8 6.134 5.566a5.549 5.549 0 0 0 5.8.767l11.166-4.767A83.205 83.205 0 0 0 82.567 181.5l4.5 11.267A5.626 5.626 0 0 0 91.7 196.3c2.767.267 5.533.367 8.3.367 2.767 0 5.533-.1 8.3-.367a5.623 5.623 0 0 0 2.809-1.121 5.62 5.62 0 0 0 1.824-2.412l4.5-11.267a83.21 83.21 0 0 0 27.834-11.567l11.166 4.767a5.549 5.549 0 0 0 5.8-.767c2.134-1.766 4.134-3.633 6.134-5.566 1.933-2 3.8-4 5.566-6.134a5.548 5.548 0 0 0 .767-5.8l-4.767-11.166a83.21 83.21 0 0 0 11.567-27.834l11.267-4.5a5.626 5.626 0 0 0 3.533-4.633c.267-2.767.367-5.533.367-8.3 0-2.767-.1-5.533-.367-8.3ZM100 170a69.997 69.997 0 0 1-68.655-83.656A70 70 0 1 1 100 170Z"/>
  <path fill="#FC6D26" d="M100 173.333A73.333 73.333 0 1 1 173.333 100 73.416 73.416 0 0 1 100 173.333Zm0-140A66.667 66.667 0 1 0 166.667 100 66.747 66.747 0 0 0 100 33.333Z"/>
  <path fill="#E24329" d="M140 130a16.685 16.685 0 0 1-16.667-16.667 3.33 3.33 0 0 1 3.334-3.333 3.335 3.335 0 0 1 3.333 3.333 9.998 9.998 0 0 0 11.951 9.808 9.999 9.999 0 0 0 3.605-18.122 10 10 0 0 0-5.556-1.686c-3.296 0-6.519-.977-9.26-2.808a16.672 16.672 0 0 1-7.086-17.11 16.664 16.664 0 0 1 22.724-12.146 16.673 16.673 0 0 1 10.289 15.398 3.335 3.335 0 0 1-6.667 0 10.006 10.006 0 0 0-6.173-9.24 10.002 10.002 0 0 0-13.066 13.066A10.004 10.004 0 0 0 140 96.668a16.668 16.668 0 0 1 16.667 16.666A16.666 16.666 0 0 1 140 130Zm-26.667 0a3.333 3.333 0 0 1-3.333-3.333V81.853l-7.137 14.27a5.062 5.062 0 0 1-9.06 0l-7.136-14.27v44.814a3.333 3.333 0 1 1-6.667 0V75.07a5.067 5.067 0 0 1 9.597-2.267l8.736 17.474 8.737-17.474a5.065 5.065 0 0 1 8.502-.875 5.07 5.07 0 0 1 1.095 3.142v51.597a3.334 3.334 0 0 1-3.334 3.333ZM70 130H60a16.687 16.687 0 0 1-16.667-16.667V86.667A16.686 16.686 0 0 1 60 70h10a3.333 3.333 0 1 1 0 6.667H60a10 10 0 0 0-10 10v26.666a10 10 0 0 0 10 10h10A3.334 3.334 0 0 1 70 130Z"/>
</svg>
