<svg xmlns="http://www.w3.org/2000/svg" width="200" height="200" fill="none">
  <path fill="gray" d="M177.677 131.409c-2.788 0-5.234-.663-7.339-1.99-2.091-1.327-3.726-3.184-4.906-5.57-1.166-2.386-1.749-5.174-1.749-8.364 0-3.217.583-6.025 1.749-8.424 1.18-2.4 2.815-4.263 4.906-5.59 2.105-1.327 4.551-1.99 7.339-1.99 2.788 0 5.227.663 7.318 1.99 2.105 1.327 3.74 3.19 4.906 5.59 1.18 2.399 1.77 5.207 1.77 8.424 0 3.19-.59 5.978-1.77 8.364-1.166 2.386-2.801 4.243-4.906 5.57-2.091 1.327-4.53 1.99-7.318 1.99Zm0-4.262c2.118 0 3.86-.543 5.227-1.629 1.368-1.086 2.38-2.513 3.036-4.283.657-1.769.986-3.686.986-5.75s-.329-3.988-.986-5.77c-.656-1.783-1.668-3.224-3.036-4.323-1.367-1.099-3.109-1.649-5.227-1.649-2.118 0-3.86.55-5.228 1.649-1.367 1.099-2.379 2.54-3.036 4.323-.656 1.782-.985 3.706-.985 5.77 0 2.064.329 3.981.985 5.75.657 1.77 1.669 3.197 3.036 4.283 1.368 1.086 3.11 1.629 5.228 1.629Zm-32.672 3.619V99.883h4.584v4.665h.322c.563-1.528 1.582-2.768 3.056-3.72 1.475-.952 3.137-1.428 4.986-1.428.349 0 .784.007 1.307.02.523.014.918.034 1.187.06v4.826c-.161-.04-.53-.1-1.106-.181-.563-.093-1.16-.14-1.79-.14-1.501 0-2.841.315-4.021.945a7.128 7.128 0 0 0-2.775 2.573c-.67 1.086-1.005 2.326-1.005 3.72v19.543h-4.745Zm-35.296 0V89.589h13.913c3.231 0 5.871.583 7.922 1.749 2.064 1.153 3.592 2.714 4.584 4.684.992 1.97 1.488 4.169 1.488 6.595s-.496 4.631-1.488 6.615c-.978 1.984-2.493 3.566-4.544 4.745-2.051 1.166-4.678 1.749-7.881 1.749h-9.973v-4.423h9.812c2.212 0 3.988-.382 5.328-1.146 1.34-.764 2.312-1.796 2.915-3.096.617-1.314.925-2.795.925-4.444 0-1.648-.308-3.123-.925-4.423-.603-1.3-1.581-2.319-2.935-3.056-1.354-.75-3.15-1.126-5.389-1.126h-8.766v36.754h-4.986Zm-52.638 0v-5.429l33.296-49.702H56.709V69h42.585v5.429L65.998 124.13h33.658v6.635H57.07Zm-48.706 0V69H45.64v6.635H15.844v20.87h27.867v6.635H15.844v20.991h30.28v6.635H8.364Z"/>
</svg>
