<svg xmlns="http://www.w3.org/2000/svg" width="200" height="200" fill="none">
  <path fill="#0ACF83" d="M66.667 200c18.4 0 33.333-14.933 33.333-33.333v-33.334H66.667c-18.4 0-33.334 14.934-33.334 33.334 0 18.4 14.934 33.333 33.334 33.333Z"/>
  <path fill="#A259FF" d="M33.333 100c0-18.4 14.934-33.333 33.334-33.333H100v66.666H66.667c-18.4 0-33.334-14.933-33.334-33.333Z"/>
  <path fill="#F24E1E" d="M33.333 33.333C33.333 14.933 48.267 0 66.667 0H100v66.667H66.667c-18.4 0-33.334-14.934-33.334-33.334Z"/>
  <path fill="#FF7262" d="M100 0h33.333c18.4 0 33.334 14.933 33.334 33.333s-14.934 33.334-33.334 33.334H100V0Z"/>
  <path fill="#1ABCFE" d="M166.667 100c0 18.4-14.934 33.333-33.334 33.333C114.933 133.333 100 118.4 100 100s14.933-33.333 33.333-33.333S166.667 81.6 166.667 100Z"/>
</svg>
