<svg xmlns="http://www.w3.org/2000/svg" width="200" height="200" fill="none">
  <path fill="#E24329" d="m11.111 77.778 52.111 50v-50L41 9.556c-1.139-3.512-6.533-3.512-7.667 0L11.111 77.778Zm177.778 0-52.111 50v-50L159 9.556c1.139-3.512 6.533-3.512 7.667 0l22.222 68.222Z"/>
  <path fill="#E24329" d="M100 191 16.667 77.778h166.666L100 191Z"/>
  <path fill="#FC6D26" d="M100 191 63.222 77.778h-52.11l22.221 61.111L100 191Zm0 0 36.778-113.222h52.111l-22.222 61.111L100 191Z"/>
  <path fill="#FCA326" d="M11.111 77.778.556 112c-1 3.139 0 6.667 2.777 8.667L100.111 191l-89-113.222Z"/>
  <path fill="#FCA326" d="M188.889 77.778 199.444 112c1 3.139 0 6.667-2.777 8.667L100 191l88.889-113.222Z"/>
</svg>
