<svg xmlns="http://www.w3.org/2000/svg" width="200" height="200" fill="none">
  <path fill="#E24329" fill-rule="evenodd" d="M100.02 91.475a1.91 1.91 0 0 1-1.912-1.912V75.076a1.91 1.91 0 0 1 1.912-1.912 1.91 1.91 0 0 1 1.913 1.912v14.487a1.91 1.91 0 0 1-1.913 1.912Zm9.644 16.399c-1.261 0-2.319 1.058-2.319 2.319v71.903a2.318 2.318 0 0 0 2.319 2.319h71.902a2.318 2.318 0 0 0 2.32-2.319v-71.862c0-1.261-1.058-2.319-2.32-2.319l-71.902-.041Zm71.902 80.407h-71.902a6.182 6.182 0 0 1-6.185-6.185v-71.903a6.182 6.182 0 0 1 6.185-6.185h71.902a6.183 6.183 0 0 1 6.186 6.185v71.903c-.041 3.418-2.808 6.185-6.186 6.185Z" clip-rule="evenodd"/>
  <path fill="#E24329" fill-rule="evenodd" d="M185.798 134.69h-80.406a1.911 1.911 0 0 1-1.913-1.913 1.91 1.91 0 0 1 1.913-1.912h80.406a1.91 1.91 0 0 1 1.913 1.912 1.911 1.911 0 0 1-1.913 1.913Zm0 26.816h-80.406a1.911 1.911 0 0 1-1.913-1.913 1.91 1.91 0 0 1 1.913-1.912h80.406a1.91 1.91 0 0 1 1.913 1.912c0 1.017-.855 1.913-1.913 1.913Z" clip-rule="evenodd"/>
  <path fill="#FCA326" fill-rule="evenodd" d="M144.415 116.745h-29.868a1.91 1.91 0 0 1-1.912-1.913 1.91 1.91 0 0 1 1.912-1.912h29.868a1.91 1.91 0 0 1 1.913 1.912c.04 1.058-.855 1.913-1.913 1.913Zm0 9.074h-29.868a1.91 1.91 0 0 1-1.912-1.913 1.91 1.91 0 0 1 1.912-1.912h29.868a1.91 1.91 0 0 1 1.913 1.912c.04 1.058-.855 1.913-1.913 1.913Zm10.987-9.074c-.041 0-.082.04-.082.081v5.046c0 .041.041.081.082.081h3.418c.04 0 .081-.04.081-.081v-5.046c0-.041-.041-.081-.081-.081h-3.418Zm3.418 9.074h-3.418a3.95 3.95 0 0 1-3.947-3.947v-5.046c0-2.157 1.79-3.947 3.947-3.947h3.418a3.951 3.951 0 0 1 3.947 3.947v5.046a3.925 3.925 0 0 1-3.947 3.947Zm12.411-9.074c-.041 0-.082.04-.082.081v5.046c0 .041.041.081.082.081h3.418c.041 0 .081-.04.081-.081v-5.046a.086.086 0 0 0-.081-.081h-3.418Zm3.418 9.074h-3.418a3.95 3.95 0 0 1-3.947-3.947v-5.046a3.95 3.95 0 0 1 3.947-3.947h3.418a3.95 3.95 0 0 1 3.947 3.947v5.046a3.95 3.95 0 0 1-3.947 3.947Zm-30.234 26.816h-29.868a1.91 1.91 0 0 1-1.912-1.913 1.91 1.91 0 0 1 1.912-1.912h29.868a1.91 1.91 0 0 1 1.913 1.912c.04 1.058-.855 1.913-1.913 1.913Zm0-9.074h-29.868a1.91 1.91 0 0 1-1.912-1.913 1.91 1.91 0 0 1 1.912-1.912h29.868a1.91 1.91 0 0 1 1.913 1.912c.04 1.058-.855 1.913-1.913 1.913Zm10.987 0c-.041 0-.082.04-.082.081v5.046c0 .04.041.081.082.081h3.418c.04 0 .081-.041.081-.081v-5.046c0-.041-.041-.081-.081-.081h-3.418Zm3.418 9.074h-3.418a3.95 3.95 0 0 1-3.947-3.947v-5.046c0-2.157 1.79-3.947 3.947-3.947h3.418a3.951 3.951 0 0 1 3.947 3.947v5.046a3.951 3.951 0 0 1-3.947 3.947Zm12.411-9.074c-.041 0-.082.04-.082.081v5.046c0 .04.041.081.082.081h3.418c.041 0 .081-.041.081-.081v-5.046a.086.086 0 0 0-.081-.081h-3.418Zm3.418 9.074h-3.418a3.95 3.95 0 0 1-3.947-3.947v-5.046a3.95 3.95 0 0 1 3.947-3.947h3.418a3.95 3.95 0 0 1 3.947 3.947v5.046c0 2.156-1.79 3.947-3.947 3.947Zm-30.234 17.701h-29.868a1.91 1.91 0 0 1-1.912-1.913 1.91 1.91 0 0 1 1.912-1.912h29.868a1.91 1.91 0 0 1 1.913 1.912c.04 1.058-.855 1.913-1.913 1.913Zm0 9.074h-29.868a1.91 1.91 0 0 1-1.912-1.912 1.91 1.91 0 0 1 1.912-1.913h29.868c1.058 0 1.913.855 1.913 1.913.04 1.058-.855 1.912-1.913 1.912Zm10.987-9.074c-.041 0-.082.04-.082.081v5.046c0 .041.041.081.082.081h3.418c.04 0 .081-.04.081-.081v-5.046c0-.041-.041-.081-.081-.081h-3.418Zm3.418 9.074h-3.418a3.95 3.95 0 0 1-3.947-3.947v-5.046c0-2.157 1.79-3.947 3.947-3.947h3.418a3.951 3.951 0 0 1 3.947 3.947v5.046a3.925 3.925 0 0 1-3.947 3.947Zm12.411-9.074c-.041 0-.082.04-.082.081v5.046c0 .041.041.081.082.081h3.418c.041 0 .081-.04.081-.081v-5.046a.086.086 0 0 0-.081-.081h-3.418Zm3.418 9.074h-3.418a3.95 3.95 0 0 1-3.947-3.947v-5.046a3.95 3.95 0 0 1 3.947-3.947h3.418a3.95 3.95 0 0 1 3.947 3.947v5.046a3.95 3.95 0 0 1-3.947 3.947ZM54.405 107.874c-9.604 0-17.701 17.538-17.701 38.291 0 20.753 8.097 38.291 17.7 38.291 9.604 0 17.702-17.538 17.702-38.291 0-20.753-8.098-38.291-17.701-38.291Zm0 80.407c-12.086 0-21.567-18.515-21.567-42.116 0-23.642 9.481-42.116 21.567-42.116 12.085 0 21.566 18.515 21.566 42.116s-9.48 42.116-21.566 42.116Z" clip-rule="evenodd"/>
  <path fill="#FCA326" fill-rule="evenodd" d="M54.405 188.281a1.91 1.91 0 0 1-1.913-1.913v-80.407a1.91 1.91 0 0 1 1.913-1.912 1.91 1.91 0 0 1 1.912 1.912v80.407c.04 1.058-.854 1.913-1.912 1.913Z" clip-rule="evenodd"/>
  <path fill="#FCA326" fill-rule="evenodd" d="M94.608 148.077H14.201a1.91 1.91 0 0 1-1.912-1.912 1.91 1.91 0 0 1 1.912-1.913h80.407a1.91 1.91 0 0 1 1.913 1.913 1.91 1.91 0 0 1-1.913 1.912Zm-5.656-20.549H19.858a1.91 1.91 0 0 1-1.913-1.912 1.91 1.91 0 0 1 1.913-1.913h69.094a1.91 1.91 0 0 1 1.913 1.913c0 1.017-.855 1.912-1.913 1.912Zm0 41.139H19.858a1.91 1.91 0 0 1-1.913-1.912 1.91 1.91 0 0 1 1.913-1.913h69.094a1.91 1.91 0 0 1 1.913 1.913 1.91 1.91 0 0 1-1.913 1.912Z" clip-rule="evenodd"/>
  <path fill="#E24329" fill-rule="evenodd" d="M145.595 107.874a1.91 1.91 0 0 1-1.912-1.913V91.475H56.358v14.486a1.91 1.91 0 0 1-1.912 1.913 1.91 1.91 0 0 1-1.913-1.913v-16.44a1.91 1.91 0 0 1 1.913-1.912h91.19a1.91 1.91 0 0 1 1.912 1.913v16.439c0 1.058-.895 1.913-1.953 1.913Z" clip-rule="evenodd"/>
  <path fill="#FCA326" fill-rule="evenodd" d="M54.405 107.874c-21.12 0-38.291 17.172-38.291 38.291 0 21.119 17.172 38.291 38.29 38.291 21.12 0 38.292-17.172 38.292-38.291 0-21.119-17.172-38.291-38.291-38.291Zm0 80.407c-23.235 0-42.116-18.881-42.116-42.116s18.922-42.116 42.116-42.116c23.235 0 42.116 18.881 42.116 42.116s-18.881 42.116-42.116 42.116ZM66.043 45.209c-7.691 0-13.958 6.266-13.958 13.957 0 7.69 6.267 13.957 13.958 13.957h67.914c7.691 0 13.958-6.266 13.958-13.957 0-4.639-2.279-8.952-6.104-11.557-.529-.366-.814-.936-.855-1.546-.122-7.528-6.144-13.55-13.672-13.713-.936 0-1.709-.692-1.872-1.587-1.546-8.79-9.156-15.178-18.149-15.178-9.115 0-16.968 6.796-18.23 15.788a1.914 1.914 0 0 1-.854 1.343 1.983 1.983 0 0 1-1.587.204 14.046 14.046 0 0 0-11.272 1.424c-3.418 2.075-5.696 5.371-6.47 9.278a1.873 1.873 0 0 1-1.993 1.546c-.285.04-.53.04-.814.04Zm67.914 31.74H66.043c-9.807 0-17.823-7.976-17.823-17.824 0-9.603 7.65-17.457 17.172-17.782 1.22-4.273 4.028-7.935 7.894-10.295a17.955 17.955 0 0 1 12.33-2.32c2.36-9.847 11.312-17.05 21.647-17.05a22.187 22.187 0 0 1 21.608 16.888 17.711 17.711 0 0 1 15.87 16.399c4.394 3.377 6.999 8.585 6.999 14.16 0 9.848-7.976 17.864-17.783 17.823Z" clip-rule="evenodd"/>
</svg>
