<svg xmlns="http://www.w3.org/2000/svg" width="200" height="200" fill="none">
  <path fill="#7AC143" d="m38.988 100.506-3.544-3.544C24.05 85.57 20.76 69.62 24.81 55.19 13.418 52.658 5.064 42.532 5.064 30.38c0-13.924 11.392-25.317 25.316-25.317 12.658 0 23.038 9.114 25.064 21.266 13.67-3.291 28.607.506 39.24 11.14l1.519 1.518-18.734 18.734-1.52-1.518c-6.075-6.077-15.949-6.077-22.024 0-6.076 6.075-6.076 15.949 0 22.025l42.025 42.025-18.734 18.734-19.747-19.747-18.481-18.734Z"/>
  <path fill="#F9A541" d="m60 79.747 42.026-42.026c11.139-11.139 27.341-14.683 41.519-10.632 1.772-12.405 12.405-21.773 25.063-21.773 13.924 0 25.316 11.393 25.316 25.317 0 12.911-9.62 23.544-22.025 25.063 4.051 14.177.506 30.127-10.633 41.266l-1.519 1.519-18.228-18.734 1.519-1.52c6.076-6.075 6.076-15.949 0-22.025-6.076-6.075-15.949-6.075-22.025 0L78.988 98.228 60 79.747Z"/>
  <path fill="#F44321" d="M144.304 174.177c-14.43 4.304-30.633 1.013-42.025-10.38l-1.519-1.519 18.734-18.734 1.519 1.519c6.076 6.076 15.949 6.076 22.025 0 6.076-6.076 6.076-15.949 0-22.025l-42.025-42.025 18.734-18.735 42.279 42.279c10.632 10.633 14.43 25.823 11.139 39.747 12.405 1.772 21.772 12.405 21.772 25.063 0 13.924-11.392 25.317-25.316 25.317-12.659-.254-23.038-9.114-25.317-20.507Z"/>
  <path fill="#5091CD" d="m136.962 121.519-42.025 42.025c-10.886 10.886-26.076 14.431-39.747 11.139-2.531 11.393-12.658 19.747-24.81 19.747-13.924 0-25.316-11.392-25.316-25.316 0-11.899 8.354-22.025 19.493-24.557-3.544-14.177 0-29.367 10.887-40.253l1.518-1.519 18.735 18.734-1.52 1.519c-6.075 6.076-6.075 15.949 0 22.025 6.077 6.076 15.95 6.076 22.026 0l42.025-42.025 18.734 18.481Z"/>
</svg>
