<svg xmlns="http://www.w3.org/2000/svg" width="200" height="200" fill="none">
  <g fill="#000" fill-rule="evenodd" clip-path="url(#a)" clip-rule="evenodd">
    <path d="M90 160.161h14.516V88.548L90 83.71v76.451Z"/>
    <path d="M132.58 56.935c-.161 9.678-3.225 14.678-9.677 14.678-6.613 0-13.387-3.548-22.419-7.903-12.259-5.807-18.065-7.42-25.646-7.42-12.419 0-22.096 10.323-21.45 28.065h10.805c.162-11.29 4.194-16.29 10.645-16.29 6.452 0 13.226 3.387 21.613 7.58 12.42 5.645 18.871 8.226 26.129 8.226 11.13 0 21.452-5.968 20.645-26.936H132.58Z"/>
    <path d="M99.839 0C44.839 0 0 44.839 0 99.839s44.839 99.839 99.839 99.839 99.839-44.839 99.839-99.84C199.678 44.839 155 0 99.838 0Zm0 193.226c-51.452 0-93.387-41.774-93.387-93.387S48.387 6.452 99.839 6.452c51.451 0 93.387 41.935 93.387 93.387 0 51.451-41.936 93.387-93.387 93.387Z"/>
  </g>
  <defs>
    <clipPath id="a">
      <path fill="#fff" d="M0 0h200v200H0z"/>
    </clipPath>
  </defs>
</svg>
