<svg xmlns="http://www.w3.org/2000/svg" width="200" height="200" fill="none">
  <mask id="a" width="189" height="178" x="6" y="12" maskUnits="userSpaceOnUse" style="mask-type:luminance">
    <path fill="#fff" d="M187.798 52.783c-51.491 0-61.873 15.6-85.528 33.794 0 0 .548-6.415-5.604-7.574-6.15-1.16-7.66 4.53-7.66 4.53s-2.09-3.37-2.903-6.503c-3.707-14.296-20.774-29.718-39.12-48.06-18.34-18.34-36.911-16.946-36.911-16.946l-1.626 6.5c-4.412 13 0 16.252 0 20.202 0 3.944 1.043 7.538 4.294 13.575 3.25 6.038 4.876 25.66 6.04 35.406 1.16 9.757 8.65 15.961 9.865 17.179 1.218 1.226-8.94 6.038-8.94 7.313v5.69c0 .813-3.542 3.776-4.528 4.757-.986.993-1.16 4.996 0 20.783 1.16 15.783 27.862 31.92 35.176 33.544 7.31 1.626 13.462-12.651 17.876-14.273 4.41-1.627 15.44-13.353 15.44-13.353s3.249 30.414 3.249 19.04c0-11.378 6.963-14.281 6.963-14.281l.818-8.008s7.487 24.436 16.248 33.202c8.764 8.767 25.424 10.1 27.048 10.1 1.626 0 12.653.576 22.403-23.8 9.752-24.374-5.685-30.297-2.436-30.297 3.249 0 14.973-9.403 13.354-17.527-1.627-8.125 6.145-24.841 13.809-32.501 7.658-7.663 8.939-27.745 8.939-28.443 0-.695-1.845-4.05-6.266-4.05Z"/>
  </mask>
  <g mask="url(#a)">
    <mask id="b" width="214" height="190" x="-14" y="5" maskUnits="userSpaceOnUse" style="mask-type:luminance">
      <path fill="#fff" d="M-13.3 194.373h213.226V5.448H-13.299v188.925Z"/>
    </mask>
    <g mask="url(#b)">
      <path fill="url(#c)" d="M137.233 189.436v-.07h-.836v-.069h-.696v-.07h-.627v-.07h-.557v-.069h-.488v-.07h-.488v-.07h-.417v-.069h-.488v-.07h-.348v-.07h-.418v-.069h-.418v-.07h-.349v-.07h-.348v-.069h-.348v-.07h-.348v-.07h-.349v-.069h-.348v-.07h-.279v-.07h-.278v-.069h-.279v-.07h-.348v-.07h-.279v-.069h-.278v-.07h-.279v-.07h-.279v-.069h-.209v-.07h-.278v-.07h-.279v-.069h-.209v-.07h-.279v-.069h-.209v-.07h-.278v-.07h-.209v-.069h-.209v-.07h-.209v-.07h-.279v-.069h-.209v-.07h-.209v-.07h-.209v-.069h-.209v-.07h-.209v-.07h-.209v-.069h-.209v-.07h-.209v-.07h-.139v-.069h-.209v-.07h-.139v-.07h-.209v-.069h-.209v-.07h-.139v-.07h-.209v-.069h-.209v-.07h-.14v-.07h-.209v-.069h-.139v-.07h-.209v-.07h-.139v-.069h-.14v-.07h-.139v-.07h-.209v-.069h-.139v-.07h-.139v-.07h-.14v-.069h-.209v-.07h-.139v-.07h-.139v-.069h-.14v-.07h-.209v-.07h-.139v-.069h-.139v-.07h-.14v-.069h-.139v-.07h-.07v-.07h-.139v-.069h-.139v-.07h-.14v-.07h-.139v-.069h-.139v-.07h-.14v-.07h-.139v-.069h-.139v-.07h-.139v-.07h-.14v-.069h-.139v-.07h-.07v-.07h-.139v-.069h-.139v-.07h-.07v-.07h-.139v-.069h-.07v-.07h-.139v-.07h-.14v-.069h-.069v-.07h-.14v-.07h-.069v-.069h-.14v-.07h-.139v-.07h-.07v-.069h-.139v-.07h-.139v-.07h-.07v-.069h-.139v-.07h-.07v-.07h-.139v-.069h-.07v-.07h-.069v-.07h-.14v-.069h-.069v-.07h-.07v-.069h-.139v-.07h-.07v-.07h-.07v-.069h-.139v-.07h-.07v-.07h-.069v-.069h-.14v-.07h-.069v-.07h-.07v-.069h-.139v-.07h-.07v-.07h-.07v-.069h-.139v-.07h-.07v-.07h-.069v-.069h-.07v-.07h-.07v-.07h-.139v-.069h-.07v-.07h-.069v-.07h-.07v-.069h-.07v-.07h-.069v-.07h-.14v-.069h-.069v-.07h-.07v-.07h-.069v-.069h-.07v-.07h-.07v-.07h-.069v-.069h-.07v-.07h-.07v-.07h-.069v-.069h-.07v-.07h-.07v-.07h-.069v-.069h-.07v-.07h-.07v-.069h-.069v-.07h-.07v-.07h-.07v-.069h-.069v-.07h-.07v-.07h-.07v-.069h-.069v-.07h-.07v-.07h-.07v-.069h-.069v-.14h-.07v-.069h-.07v-.07h-.069v-.07h-.07v-.069h-.07v-.07h-.069v-.139h-.07v-.07h-.07v-.07h-.069v-.069h-.07v-.07h-.07v-.07h-.069v-.139h-.07v-.07h-.07v-.069h-.069v-.14h-.07v-.069h-.069v-.07h-.07v-.07h-.07v-.139h-.069v-.07h-.07v-.069h-.07v-.14h-.069v-.069h-.07v-.07h-.07v-.139h-.069v-.07h-.07v-.139h-.07v-.07h-.069v-.069h-.07v-.14h-.07v-.069h-.069v-.14h-.07v-.069h-.07v-.07h-.069v-.139h-.07v-.07h-.07v-.139h-.069v-.07h-.07v-.139h-.07v-.07h-.069v-.139h-.07v-.07h-.07v-.139h-.069v-.07h-.07v-.139h-.07v-.07h-.069v-.139h-.07v-.14h-.07v-.069h-.069v-.139h-.07v-.07h-.07v-.139h-.069v-.14h-.07v-.069h-.07v-.14h-.069v-.069h-.07v-.14h-.069v-.139h-.07v-.07h-.07v-.139h-.069v-.139h-.07v-.14h-.07v-.069h-.069v-.14h-.07v-.139h-.07v-.07h-.069v-.139h-.07v-.139h-.07v-.14h-.069v-.069h-.07v-.14h-.07v-.139h-.069v-.139h-.07v-.07h-.07v-.139h-.069v-.139h-.07v-.14h-.07v-.139h-.069v-.139h-.07v-.07h-.07v-.139h-.069v-.14h-.07v-.139h-.07v-.139h-.069v-.14h-.07v-.139h-.07v-.07h-.069v-.139h-.07v-.139h-.07v-.14h-.069v-.139h-.07v-.139h-.07v-.14h-.069v-.139h-.07v-.139h-.069v-.139h-.07v-.14h-.07v-.139h-.069v-.139h-.07v-.14h-.07v-.139h-.069v-.139h-.07v-.14h-.07v-.139h-.069v-.139h-.07v-.14h-.07v-.139h-.069v-.139h-.07v-.14h-.07v-.209h-.069v-.139h-.07v-.139h-.07v-.139h-.069v-.14h-.07v-.139h-.07v-.139h-.069v-.14h-.07v-.209h-.07v-.139h-.069v-.139h-.07v-.14h-.07v-.139h-.069v-.139h-.07v-.209h-.07v-.14h-.069v-.139h-.07v-.139h-.07v-.209h-.069v-.14h-.07v-.139h-.07v-.139h-.069v-.209h-.07v-.139h-.07v-.14h-.069v-.139h-.07v-.209h-.069v-.139h-.07v-.14h-.07v-.209h-.069v-.139h-.07v-.139h-.07v-.209h-.069v-.14h-.07v-.139h-.07v-.209h-.07v-.139h-.07v-.209h-.069v-.139h-.07v-.14h-.069v-.209h-.07v-.139h-.07v-.209h-.069v-.139h-.07v-.209h-.07v-.14H99.2v-.139h-.07v-.209h-.07v-.139h-.069v-.209h-.07v-.14h-.07v-.209h-.069v-.139h-.07v-.209h-.07v-.139h-.069v-.209h-.07v-.139h-.07v-.209h-.069v-.209h-.07v-.14h-.07v-.209h-.069V156h-.07v-.209h-.07v-.209h-.069v-.139h-.07v-.209h-.07v-.14h-.069v-.209h-.07v-.209h-.07v-.139h-.069v-.209h-.07v-.209h-.07v-.139h-.069v-.209h-.07v-.209h-.07v-.209h-.069v-.139h-.07v-.209h-.069v-.209h-.07v-.209h-.07v-.14h-.069v-.209h-.07v-.209h-.07v-.208h-.069v-.209h-.07v-.14h-.07v-.209h-.069v-.209h-.07v-.209h-.07v-.209h-.069v-.209h-.07v-.139h-.07v-.209h-.069v-.209h-.07v-.209h-.07v-.209h-.069v-.209h-.07v-.209h-.07v-.209h-.069v-.209h-.07v-.209h-.07v-.209H95.3v-.209h-.07v-.209h-.07v-.209h-.069v-.209h-.07v-.209h-.07v-.209h-.069v-.209h-.07v-.209h-.07v-.139h-.069v.697h-.07v.696h-.07v.627h-.069v.697h-.07v.696h-.07v.697h-.069v.697h-.07v.627h-.069v.696h-.07v.697h-.07v.696h-.069v.279h-.14v.07h-.139v.069h-.139v.07h-.14v.07h-.069v.069h-.14v.07H93v.069h-.07v.07h-.139v.07h-.07v.069h-.069v.07h-.14v.07h-.069v.069h-.07v.07h-.139v.07h-.07v.069h-.07v.07h-.069v.07h-.07v.069h-.139v.07h-.07v.07h-.07v.069h-.069v.07h-.07v.07h-.069v.069h-.07v.07h-.07v.07h-.069v.069h-.07v.07h-.07v.07h-.069v.069h-.07v.07h-.07v.07h-.069v.069h-.07v.14h-.07v.069h-.069v.07h-.07v.07h-.07v.069h-.069v.07h-.07v.139h-.07v.07h-.069v.069h-.07v.14h-.07v.069h-.069v.14h-.07v.069h-.07v.07h-.069v.139h-.07v.07h-.07v.139h-.069v.07h-.07v.139h-.07v.14h-.069v.069h-.07v.14h-.07v.139h-.069v.07h-.07v.139h-.07v.139h-.069v.14h-.07v.139h-.07v.139h-.069v.14h-.07v.139h-.069v.139h-.07v.209h-.07v.139h-.069v.209h-.07v.14h-.07v.209h-.069v.139h-.07v.209h-.07v.139h-.069v.279h-.07v.209h-.07v.209h-.069v.279h-.07v.209h-.07v.208h-.069v.349h-.07v.348h-.07v.348h-.069v.349h-.07v.278h-.07v.627h-.069v.557h-.07v.558h-.07v1.254h-.069v2.716h-.07v.558h-.07v.139h-.069v.069h-.07v-.069h-.07v-.07h-.069v-.209h-.07v-.209h-.07v-.278h-.069v-.349h-.07v-.348h-.07v-.348h-.069v-.418h-.07v-.349h-.069v-.487h-.07v-.418h-.07v-.488h-.069v-.418h-.07v-.487h-.07v-.488h-.069v-.487h-.07v-.488h-.07v-.557h-.069v-.488h-.07v-.557h-.07v-.557h-.069v-.488h-.07v-.557h-.07v-.558h-.069v-.557h-.07v-.557h-.07v-.627h-.069v-.557h-.07v-.558h-.07v-.627h-.069v-.557h-.07v-.627h-.07v-.557h-.069v-.627h-.07v-.557h-.07v-.627h-.069v-.627h-.07v-.627h-.07v-.627h-.069v-.627h-.07v-.627h-.07v-.627h-.069v-.557h-.07v.07h-.07v.069h-.069v.07h-.07v.07h-.069v.069h-.07v.07h-.07v.07h-.069v.069h-.07v.07h-.07v.139H82.9v.07h-.07v.07h-.07v.069h-.069v.07h-.07v.07h-.07v.069h-.069v.07h-.07v.07h-.07v.069h-.069v.07h-.07v.07h-.07v.069h-.069v.07h-.07v.07h-.07v.069h-.069v.07h-.07v.07h-.07v.069h-.069v.07h-.07v.07h-.07v.069h-.069v.07h-.07v.07h-.07v.069h-.069v.07h-.07v.069h-.07v.07h-.069v.07h-.07v.069h-.07v.07h-.069v.07h-.07v.069h-.07v.07h-.069v.07h-.07v.069h-.069v.07h-.07v.07h-.07v.069h-.069v.07h-.07v.07h-.07v.069h-.069v.07h-.07v.07h-.07v.069h-.069v.07h-.07v.07h-.07v.069h-.069v.07h-.07v.07h-.07v.069h-.069v.07h-.07v.07h-.07v.069h-.069v.07h-.07v.07h-.07v.069H79v.07h-.07v.07h-.07v.069h-.069v.07h-.07v.07h-.07v.069h-.069v.07h-.07v.069h-.139v.07h-.07v.07h-.07v.069h-.069v.07h-.07v.07h-.07v.069h-.069v.07h-.07v.07h-.069v.069h-.07v.07h-.07v.07h-.069v.069h-.07v.07h-.07v.07h-.069v.069h-.07v.07h-.07v.07h-.069v.069h-.07v.07h-.139v.07h-.07v.069h-.07v.07h-.069v.07h-.07v.069h-.07v.07h-.069v.07h-.07v.069h-.07v.07h-.069v.07h-.07v.069h-.07v.07h-.139v.07h-.07v.069h-.069v.07h-.07v.07h-.07v.069h-.069v.07h-.07v.069h-.07v.07h-.069v.07h-.07v.069h-.139v.07h-.07v.07h-.07v.069h-.069v.07h-.07v.07h-.069v.069h-.07v.07h-.07v.07h-.139v.069h-.07v.07h-.069v.07h-.07v.069h-.07v.07h-.069v.07h-.07v.069h-.139v.07h-.07v.07h-.07v.069h-.069v.07h-.07v.07h-.07v.069h-.139v.07h-.07v.07h-.069v.069h-.07v.07h-.07v.07h-.138v.069h-.07v.07h-.07v.07h-.07v.069h-.07v.07H72.8v.07h-.07v.069h-.07v.07h-.07v.07h-.139v.069h-.07v.07h-.069v.069h-.07v.07h-.139v.07h-.07v.069h-.07v.07h-.139v.07h-.07v.069h-.069v.07h-.14v.07h-.069v.069h-.07v.07h-.07v.07h-.139v.069h-.07v.07h-.138v.07h-.07v.069h-.14v.07h-.07v.07h-.069v.069h-.14v.07h-.069v.07h-.14v.069h-.069v.07h-.14v.07h-.069v.069h-.14v.07h-.138v.07h-.07v.069h-.14v.07h-.139v.07h-.07v.069h-.139v.07h-.139v.07h-.14v.069h-.139v.07h-.139v.07h-.14v.069h-.208v.07h-.14v.069h-.139v.07h-.14v.07h-.138v.069h-.14v.07h-.07v.07h-.139v.069h-.07v.07h-.07v.07h-.138v.069h-.07v.07h-.07v.07h-.07v.069h-.139v.07h-.07v.07H66.6v.069h-.07v.07h-.07v.07h-.069v.069h-.07v.07h-.07v.07h-.069v.069h-.07v.07h-.139v.07h-.07v.069h-.07v.07h-.069v.07h-.07v.069h-.07v.07h-.069v.139h-.07v.07h-.07v.07h-.069v.069h-.07v.07h-.07v.07h-.069v.069h-.07v.07h-.07v.139h-.069v.07h-.07v.069h-.07v.07h-.069v.07h-.07v.069h-.07v.07h-.069v.139h-.07v.07h-.07v.07h-.069v.069h-.07v.07h-.069v.139h-.07v.07h-.07v.07h-.069v.069h-.07v.07h-.07v.139h-.069v.07h-.07v.07h-.07v.069h-.069v.14h-.07v.069h-.07v.07h-.069v.07h-.07v.139h-.07v.07h-.069v.069h-.07v.07h-.07v.139h-.069v.07h-.07v.07h-.07v.069H62.7v.139h-.07v.07h-.07v.07h-.069v.069h-.07v.14h-.07v.069h-.069v.07h-.07v.07h-.07v.139h-.069v.07h-.07v.069h-.07v.07h-.069v.139h-.07v.07h-.07v.07h-.069v.069h-.07v.14h-.07v.069h-.069v.07h-.07v.07h-.069v.139h-.07v.07h-.07v.069h-.069v.07h-.07v.07h-.07v.139h-.069v.07h-.07v.069h-.07v.07h-.069v.139h-.07v.07h-.07v.069h-.069v.07h-.07v.07h-.07v.139h-.069v.07h-.07v.069h-.07v.07h-.069v.07h-.07v.069h-.07v.07h-.069v.139h-.07v.07h-.07v.07h-.069v.069h-.07v.07h-.07v.07h-.069v.069h-.07v.14h-.07v.069h-.069v.07h-.07v.07h-.07v.069h-.069v.07h-.07v.07h-.07v.069h-.069v.07h-.07v.07h-.069v.069h-.07v.07h-.07v.07h-.069v.069h-.07v.07h-.07v.07h-.069v.069h-.07v.07h-.07v.07h-.069v.069h-.07v.07h-.07v.069h-.069v.07h-.07v.07h-.07v.069h-.069v.07h-.07v.07h-.07v.069h-.069v.07h-.07v.07h-.07v.069h-.139v.07h-.07v.07h-.069v.069h-.07v.07h-.07v.07h-.069v.069h-.14v.07h-.069v.07h-.07v.069h-.139v.07h-.07v.07h-.07v.069h-.069v.07h-.14v.07h-.069v.069h-.07v.07h-.139v.07h-.07v.069h-.139v.07h-.07v.07h-.139v.069h-.139v.07h-.14v.07h-.069v.069h-.14v.07h-.139v.07h-.07v.069h-.139v.07h-.139v.069h-.209v.07h-.14v.07h-.208v.069h-.14v.07h-.208v.07h-.21v.069h-.208v.07H52.6v.07h-.488v.069H50.58v-.069h-.28v-.07h-.279v-.07h-.278v-.069h-.21v-.07h-.208v-.07h-.21v-.069h-.208v-.07h-.21v-.07h-.208v-.069h-.21v-.07h-.138v-.069h-.21v-.07h-.208v-.07h-.14v-.069h-.139v-.07h-.209v-.07h-.14v-.069h-.139v-.07h-.209v-.07h-.139v-.069h-.14v-.07h-.139v-.07h-.209v-.069h-.139v-.07h-.14v-.07h-.139v-.069h-.139v-.07h-.14v-.07h-.138v-.069h-.14v-.07h-.209v-.07h-.139v-.069h-.14v-.07h-.139v-.07h-.139v-.069h-.14v-.07H44.1v-.07h-.07v-.069h-.139v-.07h-.139v-.07h-.14v-.069h-.139v-.07h-.139v-.07h-.14v-.069h-.139v-.07h-.139v-.07h-.14v-.069h-.069v-.07h-.14v-.069h-.138v-.07h-.14v-.07h-.139v-.069h-.14v-.07h-.069v-.07h-.14v-.069h-.139v-.07h-.139v-.07h-.07v-.069h-.139v-.07h-.14v-.07h-.139v-.069h-.07v-.07h-.139v-.07h-.139v-.069h-.14v-.07h-.069v-.07h-.14v-.069H40.2v-.07h-.07v-.07h-.138v-.069h-.14v-.07h-.07v-.07h-.139v-.069h-.139v-.07h-.07v-.07h-.139v-.069h-.14v-.07h-.069v-.07h-.14v-.069h-.069v-.07h-.14v-.07h-.139v-.069h-.07v-.07h-.139v-.07h-.07v-.069h-.139v-.07h-.07v-.07h-.139v-.069h-.139v-.07h-.07v-.069h-.139v-.07h-.07v-.07h-.139v-.069h-.07v-.07h-.139v-.07h-.07v-.069h-.139v-.07h-.07v-.07h-.139v-.069h-.07v-.07h-.139v-.07h-.139v-.069h-.07v-.07h-.139v-.07h-.07v-.069h-.07v-.07h-.139v-.07h-.07v-.069h-.139v-.07h-.07v-.07h-.139v-.069h-.07v-.07h-.139v-.07h-.07v-.069h-.139v-.07h-.07v-.07h-.138v-.069h-.07v-.07h-.07v-.07h-.14v-.069h-.069v-.07h-.14v-.07h-.069v-.069h-.07v-.07h-.139v-.07h-.07v-.069h-.139v-.07h-.07v-.069h-.069v-.07h-.14v-.07h-.069v-.069h-.14v-.07h-.069v-.07h-.07v-.069h-.139v-.07h-.07v-.07h-.07v-.069h-.139v-.07h-.07v-.07h-.069v-.069h-.14v-.07h-.069v-.07h-.07v-.069h-.139v-.07h-.07v-.07h-.07v-.069h-.139v-.07h-.07v-.07h-.069v-.069h-.14v-.07h-.069v-.07h-.07v-.069h-.07v-.07h-.138v-.07h-.07v-.069h-.07v-.07h-.139v-.07h-.07v-.069h-.07v-.07h-.069v-.07h-.14v-.069h-.069v-.07h-.07v-.07h-.07v-.069h-.139v-.07h-.07v-.069h-.069v-.07h-.07v-.07H30.1v-.069h-.07v-.07h-.07v-.07h-.069v-.069h-.14v-.07h-.069v-.07h-.07v-.069h-.07v-.07h-.069v-.07h-.14v-.069h-.069v-.07h-.07v-.07h-.07v-.069h-.069v-.07h-.14v-.07h-.069v-.069h-.07v-.07h-.07v-.07h-.069v-.069h-.07v-.07h-.139v-.07h-.07v-.069h-.069v-.07h-.07v-.07h-.07v-.069h-.069v-.07h-.07v-.07h-.139v-.069h-.07v-.07h-.07v-.07h-.069v-.069h-.07v-.07h-.07v-.07h-.069v-.069h-.14v-.07h-.069v-.07h-.07v-.069h-.07v-.07h-.069v-.069h-.07v-.07h-.07v-.07h-.069v-.069h-.07v-.07h-.07v-.07h-.138v-.069h-.07v-.07h-.07v-.07h-.07v-.069h-.07v-.07h-.069v-.07h-.07v-.069h-.07v-.07h-.069v-.07h-.07v-.069h-.069v-.07h-.07v-.07h-.07v-.069h-.069v-.07h-.07v-.07h-.07v-.069h-.069v-.07h-.07v-.07h-.07v-.069h-.069v-.07h-.14v-.07h-.069v-.069h-.07v-.07h-.07v-.07h-.069v-.069h-.07v-.07h-.07v-.07h-.069v-.139h-.07v-.07h-.07v-.069h-.069v-.07h-.07v-.069h-.07v-.07h-.069v-.07h-.07v-.069h-.07v-.07h-.069v-.07h-.07v-.069h-.07v-.07h-.069v-.07h-.07v-.069h-.07v-.07h-.069v-.07h-.07v-.069h-.07v-.07h-.069v-.07h-.07v-.069h-.07v-.14h-.069v-.069h-.07v-.07h-.069v-.07h-.07v-.069h-.07v-.07h-.069v-.07h-.07v-.069h-.07v-.07h-.069v-.07h-.07v-.139h-.07v-.07h-.069v-.069h-.07v-.07h-.07v-.07h-.069v-.069h-.07v-.07h-.07v-.139h-.069v-.07h-.07v-.07h-.07v-.069h-.069v-.07h-.07v-.139h-.07v-.07h-.069v-.069h-.07v-.07h-.07v-.07h-.069v-.139h-.07v-.07h-.07v-.069h-.069v-.07h-.07v-.139h-.07v-.07h-.069v-.07h-.07v-.069h-.07v-.14h-.069v-.069h-.07v-.07h-.07v-.139h-.069v-.07h-.07v-.07h-.069v-.069h-.07v-.14h-.07v-.069h-.069v-.07h-.07v-.139h-.07v-.07h-.069v-.139h-.07v-.07h-.07v-.07h-.069v-.139h-.07v-.069h-.07v-.14h-.069v-.069h-.07v-.14h-.07v-.069h-.069v-.07h-.07v-.139h-.07v-.07h-.069v-.139h-.07v-.07h-.07v-.139h-.069v-.07h-.07v-.139h-.07v-.14h-.069v-.069h-.07v-.14h-.07v-.069h-.069v-.14h-.07v-.139h-.07v-.07h-.069v-.139h-.07v-.07h-.07v-.139h-.069v-.139h-.07v-.139h-.07v-.14h-.069v-.069h-.07v-.14h-.07v-.139h-.07v-.139h-.07v-.14h-.069v-.069h-.07v-.14h-.07v-.139h-.069v-.139h-.07v-.14h-.07v-.209h-.069v-.139h-.07v-.139h-.07v-.14h-.069v-.139h-.07v-.139h-.07v-.14h-.069v-.209h-.07v-.139h-.07v-.209h-.069v-.139h-.07v-.209h-.07v-.139h-.069v-.209h-.07v-.14h-.07v-.209h-.069v-.209h-.07v-.278h-.07v-.209h-.069v-.209h-.07v-.209h-.07v-.279h-.069v-.278h-.07v-.349h-.07v-.278h-.069v-.349h-.07v-.418h-.07v-.487h-.069v-.558h-.07v-.975h-.07v-.975h-.069v-.975h-.07V139.7h-.069v-1.045h-.07v-1.045h-.07v-1.184h-.069v-1.184h-.07v-1.254h-.07v-1.463h-.069v-1.811h-.07v-5.015h.07v-.906h.07v-.487h.07v-.418h.069v-.279h.07v-.279h.07v-.209h.069v-.139h.07v-.139h.07v-.07h.069v-.139h.07v-.07h.07v-.07h.139v-.069h.07v-.07h.069v-.07h.07v-.069h.07v-.07h.069v-.07h.07v-.069h.07v-.07h.069v-.07h.07v-.069h.07v-.07h.069v-.069h.14v-.07h.069v-.07h.07v-.069h.07v-.07h.069v-.07h.07v-.069h.07v-.07h.069v-.07h.07v-.069h.07v-.07h.069v-.07h.139v-.069h.07v-.07h.07v-.07h.069v-.069h.07v-.07h.07v-.07h.069v-.069h.07v-.07h.07v-.07h.069v-.069h.07v-.07h.07v-.07h.069v-.069h.07v-.07h.07v-.07h.069v-.069h.07v-.07h.07v-.07h.069v-.069h.07v-.07h.07v-.07h.069v-.069h.07v-.07h.07v-.07h.069v-.069h.07v-.07h.07v-.069h.069v-.07h.07v-.07h.07v-.139h.069v-.07h.07v-.069h.07v-.07h.069v-.139h.07v-.07h.07v-.139h.069v-.14h.07v-5.99h.069v-.14h.07v-.069h.07v-.07h.069v-.07h.07v-.069h.07v-.07h.069v-.07h.07v-.069h.07v-.07h.069v-.07h.07v-.069h.139v-.07h.07v-.07h.07v-.069h.139v-.07h.07v-.07h.069v-.069h.14v-.07h.069v-.069h.14v-.07h.069v-.07h.14v-.069h.069v-.07h.14v-.07h.069v-.069h.14v-.07h.069v-.07h.14v-.069h.069v-.07h.139v-.07h.07v-.069h.139v-.07h.07v-.07h.139v-.069h.07v-.07h.139v-.07h.14v-.069h.069v-.07h.14v-.07h.069v-.069h.14v-.07h.069v-.07h.14v-.069h.139v-.07h.07v-.07h.139v-.069h.07v-.07h.139v-.07h.139v-.069h.07v-.07h.139v-.07h.07v-.069h.139v-.07h.07v-.07h.139v-.069h.07v-.07h.139v-.069h.139v-.07h.07v-.07h.139v-.069h.07v-.07h.139v-.07h.07v-.069h.139v-.07h.07v-.07h.139v-.069h.07v-.07h.139v-.07h.07v-.069h.07v-.07h.139v-.07h.07v-.069h.139v-.07h.07v-.07h.069v-.069h.14v-.07h.069v-.07h.07v-.069h.139v-.07h.07v-.07h.07v-.069h.069v-.07h.139v-.07h.07v-.069h.07v-.07h.069v-.07h.07v-.069h.07v-.07h.069v-.07h.07v-.069h.07v-.14h.069v-.069h.07v-.07h.07v-.209h.069v-.209h-.07v-.069h-.07v-.07h-.069v-.07h-.07v-.069h-.07v-.07h-.069v-.07h-.07v-.069h-.07v-.07h-.069v-.07h-.07v-.069h-.07v-.07h-.069v-.07h-.07v-.069h-.07v-.07h-.069v-.07h-.07v-.069h-.07v-.07h-.069v-.07h-.07v-.069h-.07v-.07h-.069v-.07h-.07v-.069h-.07v-.07h-.069v-.07h-.07v-.069h-.139v-.07h-.07v-.07h-.07v-.139h-.069v-.07h-.07v-.069h-.07v-.07h-.069v-.07h-.07v-.069h-.07v-.07h-.069v-.069h-.07v-.07h-.07v-.07h-.069v-.069h-.07v-.07h-.069v-.07h-.07v-.069h-.07v-.07h-.069v-.139h-.07v-.07h-.07v-.07h-.069v-.069h-.07v-.07h-.07v-.07h-.069v-.069h-.07v-.14h-.07v-.069h-.069v-.07h-.07v-.07h-.07v-.069h-.069v-.07h-.07v-.139h-.07v-.07h-.069v-.07h-.07v-.069h-.07v-.07h-.069v-.139h-.07v-.07h-.07v-.07h-.069v-.139h-.07v-.07h-.07v-.07h-.069v-.069h-.07v-.14h-.07v-.069h-.069v-.07h-.07v-.139h-.07v-.07h-.069v-.07h-.07v-.138h-.07v-.07h-.069v-.14h-.07v-.069h-.07v-.14h-.069v-.069h-.07v-.07h-.069v-.139h-.07v-.07h-.07v-.139h-.069v-.07h-.07v-.139h-.07v-.07h-.069v-.139h-.07v-.14h-.07v-.069h-.069v-.14h-.07v-.069h-.07v-.14h-.069v-.069h-.07v-.14h-.07V97h-.069v-.139h-.07v-.07h-.07v-.139h-.069v-.14h-.07v-.138h-.07v-.07h-.069v-.14h-.07v-.139h-.07v-.139h-.069v-.14h-.07v-.139h-.07v-.139h-.069v-.14h-.07v-.139h-.07v-.139h-.069v-.14h-.07v-.139h-.07v-.139h-.069v-.14h-.07v-.138h-.07v-.21h-.069v-.139h-.07v-.209h-.069v-.14h-.07v-.138h-.07v-.21h-.069v-.139h-.07v-.209h-.07v-.139h-.069v-.209h-.07v-.279h-.07v-.208h-.069v-.21h-.07v-.209h-.07v-.209h-.069v-.208h-.07v-.21h-.07v-.348h-.069v-.278h-.07v-.279h-.07v-.279h-.069v-.278h-.07v-.349h-.07v-.417h-.069V88.5h-.07v-.487h-.07v-.558h-.069v-.627h-.07v-.557h-.07v-.627h-.069v-.627h-.07v-.627h-.07v-.627h-.069v-.626h-.07v-.697h-.07v-.627h-.069v-.627h-.07v-.627h-.07v-.627h-.069v-.627h-.07v-.627H17.7v-.627h-.07v-.626h-.07v-.627h-.069v-.627h-.07v-.557h-.07v-.627h-.069v-.558h-.07v-.627h-.07v-.557h-.069v-.557h-.07v-.557h-.07v-.558h-.069v-.487h-.07v-.558h-.07v-.487h-.069v-.558h-.07v-.487h-.07v-.557h-.069v-.418h-.07v-.488h-.07v-.488h-.069v-.487h-.07v-.488h-.07v-.418h-.069v-.418h-.07v-.487h-.07v-.418h-.069v-.418h-.07v-.418h-.07v-.418h-.069v-.348h-.07v-.418h-.07v-.349h-.069v-.417h-.07v-.349h-.07v-.348h-.069v-.348h-.07v-.349h-.07v-.348h-.069v-.279h-.07v-.348h-.069v-.348h-.07v-.279h-.07v-.278h-.069v-.279h-.07v-.279h-.07v-.348h-.069v-.279h-.07v-.209h-.07v-.278h-.069v-.21h-.07v-.278h-.07V55.9h-.069v-.278h-.07v-.28h-.07v-.208H13.8v-.209h-.07v-.209h-.07v-.14h-.069v-.208h-.07v-.21h-.07v-.208h-.069v-.21h-.07v-.139h-.07v-.208h-.069v-.14h-.07v-.14h-.07v-.208h-.069v-.14h-.07v-.139h-.07v-.139h-.069v-.14h-.07v-.139h-.07v-.139h-.069V52h-.07v-.139h-.07v-.14h-.069v-.139h-.07v-.139h-.069v-.14h-.07v-.139h-.07v-.139h-.069v-.14h-.07v-.139h-.07v-.139h-.069v-.14h-.07v-.138h-.07v-.14h-.069v-.14h-.07v-.138h-.07v-.14h-.069v-.139h-.07v-.14h-.07v-.139h-.069v-.139h-.07v-.209h-.07v-.14h-.069v-.139h-.07v-.139h-.07v-.14h-.069v-.139h-.07v-.139h-.07v-.209h-.069v-.14h-.07v-.208h-.07v-.14h-.069v-.139h-.07v-.209h-.07v-.139h-.069v-.209h-.07v-.14h-.07v-.139h-.069v-.209h-.07v-.209h-.07v-.209H9.69v-.209h-.07v-.209h-.07v-.209h-.07v-.209h-.07v-.139h-.069v-.278h-.07v-.21h-.07v-.278h-.069v-.279h-.07v-.209h-.07v-.278h-.069v-.279h-.07v-.348h-.07v-.418h-.069v-.348h-.07v-.418h-.07v-.627h-.069v-.627h-.07v-1.811h-.07v-.627h-.069v-.418h-.07v-.279h-.07v-.278h-.069v-.28h-.07v-.208h-.07v-.21h-.069v-.278h-.07V35.7h-.07v-.209H7.67v-.209H7.6v-.209h-.07v-.209h-.07v-.208h-.07v-.28h-.07v-.208h-.069v-.21h-.07v-.278h-.07v-.278h-.069v-.21h-.07v-.348h-.07v-.278h-.069v-.349h-.07v-.348h-.069v-.418h-.07v-.487h-.07v-.767h-.069v-3.134h.07v-.766h.07v-.558h.069v-.557h.07v-.488h.07v-.348h.069v-.348h.07v-.349h.07v-.348h.069v-.348h.07v-.279h.07v-.278h.069v-.279h.07v-.279h.07v-.278h.069v-.279h.07v-.278h.07v-.28h.069v-.208h.07v-.21h.07v-.208h.069v-.279h.07v-.209h.07V19.4h.069v-.278h.07v-.21h.07v-.208h.069v-.21h.07v-.208h.07v-.279h.069v-.279h.07v-.278h.07v-.279h.069v-.278h.07v-.279h.069v-.279h.07v-.278h.07v-.279h.069V15.5h.07v-.278h.07v-.279h.069v-.278h.07v-.28h.07v-.278h.069v-.278h.07v-.279h.07v-.279h.069v-.278h.07v-.279h.07v-.278h.069v-.28h.07v-.138h3.134v.07h.836v.069h.627v.07h.627v.07h.487v.069h.488v.07h.418v.07h.418v.069h.418v.07h.348v.07h.349v.069h.348v.07h.348v.07h.279v.069h.348v.07h.279v.07h.278v.069h.279v.07h.279v.07h.278v.069h.279v.07h.209v.069h.279v.07h.278v.07h.21v.069h.208v.07h.279v.07h.209v.069h.209v.07h.209v.07h.209v.069h.278v.07h.21v.07h.208v.069h.21v.07h.208v.07h.14v.069h.208v.07h.21v.07h.208v.069h.14v.07h.209v.07h.209v.069h.139v.07h.209v.07h.209v.069h.14v.07h.208v.07h.14v.069h.209v.07h.139v.07h.209v.069h.14v.07h.138v.07h.21v.069h.139v.07h.139v.07h.209v.069h.14v.07h.139v.07h.139v.069h.14v.07h.208v.069h.14v.07h.139v.07h.14v.069h.139v.07h.139v.07h.209v.069h.14v.07h.138v.07h.14v.069h.139v.07h.14v.07h.139v.069h.139v.07h.14v.07h.139v.069h.139v.07h.14v.07h.139v.069h.07v.07h.139v.07h.139v.069h.14v.07h.139v.07h.139v.069h.07v.07h.139v.07h.14v.069h.138v.07h.14v.07h.139v.069h.07v.07h.139v.07h.14v.069h.139v.07h.07v.07h.139v.069h.139v.07h.07v.069h.139v.07h.14v.07h.069v.069h.14v.07h.139v.07h.139v.069h.07v.07h.139v.07h.07v.069h.139v.07h.14v.07h.069v.069h.14v.07h.069v.07h.14v.069h.069v.07h.139v.07h.14v.069h.069v.07h.14v.07h.069v.069h.14v.07h.069v.07h.14v.069h.069v.07h.14v.07h.069v.069h.14v.07h.069v.07h.14v.069h.069v.07h.14v.07h.069v.069h.14v.07h.069v.07h.07v.069h.139v.07h.07v.069h.139v.07h.07v.07h.139v.069h.07v.07h.069v.07h.14v.069h.069v.07h.07v.07h.139v.069h.07v.07h.139v.07h.07v.069h.07v.07h.139v.07h.07v.069h.069v.07h.14v.07h.069v.069h.07v.07h.139v.07h.07v.069h.07v.07h.069v.07h.14v.069h.069v.07h.07v.07h.139v.069h.07v.07h.07v.07h.069v.069h.14v.07h.069v.07h.07v.069h.069v.07h.14v.07h.069v.069h.07v.07h.07v.07h.139v.069h.07v.07h.069v.069h.07v.07h.07v.07h.139v.069h.07v.07h.069v.07h.07v.069h.07v.07h.139v.07h.07v.069h.069v.07h.07v.07h.07v.069h.069v.07h.14v.07h.069v.069h.07v.07h.07v.07h.069v.069h.07v.07h.139v.07h.07v.069h.07v.07h.069v.07h.07v.069h.07v.07h.069v.07h.07v.069h.069v.07h.14v.07h.069v.069h.07v.07h.07v.07h.069v.069h.07v.07h.07v.07h.069v.069h.07v.07h.139v.069h.07v.07h.07v.07h.069v.069h.07v.07h.07v.07h.069v.069h.07v.07h.07v.07h.069v.069h.07v.07h.07v.07h.069v.069h.07v.07h.07v.07h.069v.069h.07v.07h.07v.07h.069v.069h.07v.07h.139v.07h.07v.069h.07v.07h.069v.07h.07v.069h.069v.07h.07v.07h.07v.069h.069v.07h.07v.07h.07v.069h.069v.07h.07v.07h.07v.069h.069v.07h.07v.07h.07v.069h.069v.07h.07v.07h.07v.069h.069v.07h.07v.069h.07v.07h.069v.07h.07v.069h.07v.07h.069v.07h.07v.069h.07v.07h.069v.07h.07v.069h.07v.07h.069v.07h.07v.069h.07v.07h.069v.07h.07v.069h.07v.07h.069v.07h.07v.069h.07v.07h.069v.07h.07v.069h.07v.07h.069v.07h.07v.069h.069v.07h.07v.07h.07v.069h.069v.07h.07v.07h.07v.069h.069v.07h.07v.07h.07v.069h.069v.07h.07v.07h.07v.069h.069v.07h.07v.069h.07v.07h.069v.07h.07v.069h.07v.07h.069v.07h.07v.069h.07v.07h.069v.07h.07v.069h.07v.07h.069v.07h.07v.069h.07v.07h.069v.07h.07v.069h.07v.07h.069v.07h.07v.069h.07v.07h.069v.07h.07v.069h.07v.07h.069v.07h.07v.069h.069v.07h.07v.07h.07v.069h.069v.07h.07v.07h.07v.069h.069v.07h.07v.07h.07v.069h.069v.07h.07v.07h.07v.069h.069v.07h.07v.069h.07v.07h.069v.07h.07v.069h.07v.07h.069v.07h.07v.069h.07v.07h.069v.07h.07v.069h.07v.07h.069v.07h.07v.069h.07v.07h.069v.07h.07v.069h.07v.07h.069v.07h.07v.069h.07v.07h.069v.07h.07v.069h.07v.07h.069v.07h.07v.069h.069v.07h.07v.07h.07v.069h.069v.07h.07v.07h.07v.069h.069v.07h.07v.07h.139v.069h.07v.07h.07v.07h.069v.069h.07v.07h.07V38h.069v.069h.07v.07h.07v.069h.069v.07h.07v.07h.07v.069h.069v.07h.07v.07h.07v.069h.069v.07h.07v.07h.07v.069h.069v.07h.07v.07h.07v.069h.069v.07h.07v.07h.07v.069h.069v.07h.07v.07h.07v.069h.069v.07h.07v.07h.07v.069h.069v.07h.07v.07h.069v.069h.07v.07h.07v.07h.069v.069h.07v.07h.07v.07h.069v.069h.07v.07h.07v.07h.069v.069h.07v.07h.07v.07h.069v.069h.07v.07h.07v.069h.069v.07h.07v.07h.07v.069h.069v.07h.07v.07h.07v.069h.069v.07h.07v.07h.07v.069h.069v.07h.07v.07h.07v.069h.069v.07h.07v.07h.07v.069h.069v.07h.07v.07h.07v.069h.069v.07h.07v.07h.07v.069h.069v.07h.07v.07h.069v.069h.07v.07h.07v.07h.069v.069h.07v.07h.07v.07h.069v.069h.07v.07h.07v.07h.069v.069h.07v.07h.07v.07h.069v.069h.07v.07h.07v.07h.069v.069h.07v.07h.07v.069h.069v.07h.07v.07h.07v.069h.069v.07h.07v.07h.07v.069h.069v.07h.07v.07h.07v.069h.069v.07h.07v.139h.07v.07h.069v.07h.07v.069h.07v.07h.069v.07h.07v.069h.07v.07h.069v.07h.07v.069h.07v.07h.069v.07h.07v.069h.069v.07h.07v.07h.07v.069h.069v.07h.07v.07h.07v.069h.069v.07h.07v.07h.07v.069h.069v.07h.07v.07h.07v.069h.069v.07h.07v.069h.07v.07h.069v.07h.07v.069h.07v.07h.069v.07h.07v.069h.07v.07h.069v.07h.07v.069h.07v.07h.069v.07h.07v.069h.07v.14h.069v.069h.07v.07h.07v.07h.069v.069h.07v.07h.07v.07h.069v.069h.07v.07h.07v.07h.069v.069h.07v.07h.069v.07h.07v.069h.07v.07h.069v.07h.07v.069h.07v.07h.069v.07h.07v.069h.07v.07h.069v.07h.07v.069h.07v.07h.069v.139h.07v.07h.07v.069h.069v.07h.07v.07h.07v.069h.069v.07h.07v.07h.07v.069h.069v.07h.07v.07h.07v.069h.069v.07h.07v.07h.07v.069h.069v.07h.07v.139h.07v.07h.069v.07h.07v.069h.07v.07h.069v.07h.07v.069h.07v.07h.069v.07h.07v.069h.07v.07h.069v.07h.07v.069h.069v.07h.07v.07h.07v.069h.069v.14h.07v.069h.07v.07h.069v.07h.07v.069h.07v.07h.069v.069h.07v.07h.07V52h.069v.069h.07v.14h.07v.069h.069v.07h.07v.07h.07v.069h.069v.07h.07v.07h.07v.069h.069v.07h.07v.07h.07v.139h.069v.07h.07v.069h.07v.07h.069v.07h.07v.069h.07v.07h.069v.07h.07v.069h.07v.14h.069v.069h.07v.07h.07v.07h.069v.069h.07v.07h.069v.07h.07v.069h.07v.07h.069v.07h.07v.138h.07v.07h.069v.07h.07v.07h.07v.069h.069v.07h.07v.07h.07v.139h.069v.07h.07v.069h.07v.07h.069v.07h.07v.069h.07v.14h.069v.069h.07v.07h.07v.07h.069v.069h.07v.07h.07v.139h.069v.07h.07v.07h.07v.069h.069v.07h.07v.07h.07v.139h.069v.07h.07v.069h.07v.07h.069v.07h.07v.069h.07v.07h.069v.139h.07v.07h.069v.07h.07v.069h.07v.07h.069v.069h.07v.14h.07v.069h.069v.07h.07v.07h.07v.139h.069v.07h.07v.069h.07v.07h.069v.07h.07v.139h.07v.07h.069v.069h.07v.07h.07v.139h.069v.07h.07v.07h.07v.069h.069v.14h.07v.069h.07v.07h.069v.07h.07v.139h.07v.07h.069v.069h.07v.07h.07v.07h.069v.138h.07v.07h.07v.07h.069v.07h.07v.139h.07v.07h.069v.069h.07v.07h.07v.139h.069v.07h.07v.07h.069v.139h.07v.07h.07v.069h.069v.14h.07v.069h.07v.07h.069v.139h.07v.07h.07v.07h.069v.139h.07v.07h.07v.069h.069v.14h.07v.069h.07v.07h.069v.139h.07v.07h.07v.07h.069v.138h.07v.07h.07v.07h.069v.139h.07v.07h.07v.07h.069v.139h.07v.07H79v.069h.069v.14h.07v.069h.07v.14h.069v.069h.07v.14h.07v.069h.069v.07h.07v.139h.07v.07h.069v.139h.07v.07h.069v.139h.07v.07h.07v.139h.069v.07h.07v.139h.07v.07h.069v.139h.07v.07h.07v.139h.069v.07h.07v.07h.07v.138h.069v.07h.07v.14h.07v.069h.069v.14h.07v.069h.07v.14h.069v.069h.07v.14h.07v.139h.069v.07h.07v.139h.07v.139h.069v.07h.07v.139h.07v.14h.069v.069h.07v.14h.07v.139h.069v.07h.07v.138h.07v.14h.069v.07h.07v.139h.07v.139h.069v.07h.07v.139h.07v.14h.069v.069h.07v.14h.069v.139h.07v.139h.07v.07h.069v.139h.07v.14h.07v.138h.069v.14h.07v.14h.07v.139h.069v.139h.07v.14h.07v.138h.069v.14h.07v.14h.07v.138h.069v.14h.07v.139h.07v.14h.069v.069h.07v.14h.07v.139h.069v.209h.07v.139h.07v.14h.069v.208h.07v.14h.07v.139h.069v.209h.07v.14h.07v.208h.069v.14h.07v.139h.07v.209h.069v.139h.07v.209h.07v.14h.069v.139h.07v.209h.069v.209h.07v.209h.07v.209h.069v.209h.07v.209h.07v.209h.069v.208h.07v.21h.07v.208h.069v.21h.07v.278h.07v.279h.069v.278h.07v.21h.07v.208h.069v.21h.07v.208h.07v.21h.069v.208h.07v.14h.07v.208h.069v.21h.07v.139h.07v.209h.069v.139h.07v.14h.07v.208h.069v.14h.07v.139h.07v.14h.069v.208h.07v.14h.07v.139h.069v.14h.07v.139h.07v.139h.069v.14h.07v.138h.07v.14h.069v.139h.07v.14h.069v.139h.07v.07h.07v.139h.069v.139h.07v.14h.07v.139h.069v.07h.07v.139h.07v.139h.069v.14h.07v.069h.07v.14h.069v-.21h.07v-.209h.07v-.14h.069v-.138h.07v-.14h.07v-.139h.069v-.14h.07v-.139h.07v-.139h.069v-.14h.07v-.069h.07v-.14h.069v-.069h.07v-.14h.07v-.069h.069v-.14h.07v-.069h.07v-.07h.069v-.07h.07v-.138h.07v-.07h.069v-.07h.07v-.07h.07v-.07h.069v-.069h.07v-.07h.069v-.07h.07v-.069h.07v-.07h.069v-.07h.07v-.069h.139v-.07h.07v-.07h.07v-.069h.069v-.07h.14v-.069h.139v-.07h.07v-.07h.139v-.069h.07v-.07h.139v-.07h.209v-.069h.139v-.07h.14v-.07h.138v-.069h.21v-.07h.278v-.07h.209v-.069h.348v-.07h.558v-.07h1.462v.07h.627v.07h.349v.07h.278v.07h.279v.069h.209v.07h.278v.07h.14v.069h.14v.07h.208v.07h.14v.069h.208v.07h.07v.07h.14v.069h.139v.07h.139v.07h.07v.069h.139v.07h.14v.07h.069v.069h.07v.07h.07v.07h.069v.069h.14v.07h.069v.07h.07v.069h.069v.07h.07v.07h.07v.069h.069v.07h.07v.07h.07v.069h.069v.07h.07v.07h.069v.138h.07v.07h.07v.07h.069v.14h.07v.069h.07v.139h.069v.07h.07v.139h.07v.14h.069v.139h.07v.07h.07v.139h.069v.209h.07v.139h.07v.14h.069v.208h.07v.21h.07v.208h.069v.279h.07v.278h.07v.28h.069v.487h.07v.696h.07v.767h.139v-.07h.07v-.07h.069v-.07h.14v-.07h.069v-.069h.07v-.07h.07v-.07h.139v-.069h.07v-.07h.069v-.07h.14v-.069h.069v-.07h.07v-.07h.069v-.069h.14v-.07h.069v-.069h.07v-.07h.07v-.07h.139v-.069h.07v-.07h.069v-.07h.14v-.069h.069v-.07h.07v-.07h.07v-.069h.139v-.07h.07v-.07h.069v-.069h.07v-.07h.139v-.07h.07v-.069h.07v-.07h.069v-.07h.14v-.069h.069v-.07h.07v-.07h.07v-.069h.139v-.07h.07v-.07h.069v-.069h.14v-.07h.069v-.07h.07v-.069h.069v-.07h.14v-.07h.069v-.069h.07v-.07h.07v-.07h.139v-.069h.07v-.07h.069v-.07h.07v-.069h.07v-.07h.139v-.07h.07v-.069h.069v-.07h.07v-.069h.139v-.07h.07v-.07h.07v-.069h.069v-.07h.14v-.07h.069v-.069h.07v-.07h.07v-.07h.139v-.069h.07v-.07h.069v-.07h.07v-.069h.139v-.07h.07v-.07h.07v-.069h.069v-.07h.07v-.07h.139v-.069h.07v-.07h.069v-.07h.07v-.069h.139v-.07h.07v-.07h.07v-.069h.069v-.07h.07v-.07h.139v-.069h.07v-.07h.07v-.07h.069v-.069h.14v-.07h.069v-.07h.07v-.069h.07v-.07h.069v-.07h.14v-.069h.069v-.07h.07v-.069h.07v-.07h.139v-.07h.07v-.069h.069v-.07h.07v-.07h.07v-.069h.139v-.07h.07v-.07h.069v-.069h.07v-.07h.139v-.07h.07v-.069h.069v-.07h.07v-.07h.07v-.069h.139v-.07h.07v-.07h.069v-.069h.07v-.07h.139v-.07h.07v-.069h.07v-.07h.069v-.07h.07v-.069h.139v-.07h.07v-.07h.07v-.069h.069v-.07h.14v-.07h.069v-.069h.07v-.07h.07v-.07h.069v-.069h.14v-.07h.069v-.07h.07v-.069h.07v-.07h.139v-.07h.07v-.069h.069v-.07h.07v-.069h.07v-.07h.139v-.07h.069v-.069h.07v-.07h.07v-.07h.139v-.069h.07v-.07h.069v-.07h.07v-.069h.139v-.07h.07v-.07h.07v-.069h.069v-.07h.14v-.07h.069v-.069h.07v-.07h.07v-.07h.069v-.069h.14v-.07h.069v-.07h.07v-.069h.07v-.07h.139v-.07h.07v-.069h.069v-.07h.07v-.07h.139v-.069h.07v-.07h.07v-.07h.069v-.069h.14v-.07h.069v-.07h.07v-.069h.07v-.07h.139v-.07h.069v-.069h.07v-.07h.07v-.069h.139v-.07h.07v-.07h.069v-.069h.07v-.07h.139v-.07h.07v-.069h.07v-.07h.069v-.07h.14v-.069h.069v-.07h.07v-.07h.139v-.069h.07v-.07h.07v-.07h.069v-.069h.14v-.07h.069v-.07h.07v-.069h.139v-.07h.07v-.07h.07v-.069h.069v-.07h.14v-.07h.069v-.069h.07v-.07h.139v-.07h.07v-.069h.069v-.07h.07v-.07h.139V72.2h.07v-.07h.07v-.07h.139v-.069h.07v-.07h.069v-.07h.14v-.069h.069v-.07h.07v-.069h.139v-.07h.07v-.07h.07v-.069h.139v-.07h.07v-.07h.069v-.069h.07v-.07h.139v-.07h.07v-.069h.07v-.07h.139v-.07h.07v-.069h.069v-.07h.14v-.07h.069V70.6h.07v-.07h.139v-.07h.07v-.069h.139v-.07h.07v-.07h.069v-.069h.14v-.07h.069v-.07h.14v-.069h.069v-.07h.07v-.07h.139v-.069h.07v-.07h.07v-.07h.139v-.069h.07v-.07h.139v-.07h.07v-.069h.069v-.07h.14v-.07h.069v-.069h.14v-.07h.069v-.07h.07v-.069h.139v-.07h.07v-.069h.139v-.07h.07v-.07h.139v-.069h.07v-.07h.139v-.07h.07v-.069h.069v-.07h.14v-.07h.069v-.069h.14v-.07h.069v-.07h.14v-.069h.069v-.07h.14v-.07h.069v-.069h.14v-.07h.069v-.07h.14v-.069h.069v-.07h.14v-.07h.069v-.069h.14v-.07h.069v-.07h.14v-.069h.069v-.07h.14v-.07h.069v-.069h.14v-.07h.069v-.07h.14v-.069h.069v-.07h.14v-.07h.069v-.069h.139v-.07h.14v-.07h.069v-.069h.14v-.07h.139v-.069h.07v-.07h.139v-.07h.07v-.069h.139v-.07h.139v-.07h.07v-.069h.139v-.07h.07v-.07h.139v-.069h.14v-.07h.069v-.07h.14v-.069h.139v-.07h.07v-.07h.139v-.069h.139v-.07h.07v-.07h.139v-.069h.139v-.07h.14v-.07h.069v-.069h.14v-.07h.139v-.07h.139v-.069h.07v-.07h.139v-.07h.14v-.069h.069v-.07h.14v-.07h.139v-.069h.139v-.07h.14v-.07h.069v-.069h.14v-.07h.139v-.07h.139v-.069h.14v-.07h.139v-.07h.139v-.069h.07v-.07h.139v-.069h.139v-.07h.14v-.07h.139v-.069h.139v-.07h.14v-.07h.139v-.069h.07v-.07h.139v-.07h.139v-.069h.14v-.07h.139v-.07h.139v-.069h.209v-.07h.14v-.07h.139v-.069h.139v-.07h.14v-.07h.139v-.069h.139v-.07h.139v-.07h.14v-.069h.139v-.07h.139v-.07h.14v-.069h.139v-.07h.139v-.07h.209v-.069h.14v-.07h.139v-.07h.139v-.069h.14v-.07h.209v-.07h.139v-.069h.139v-.07h.14v-.07h.139v-.069h.209v-.07h.139v-.069h.139v-.07h.209v-.07h.14v-.069h.209v-.07h.139v-.07h.139v-.069h.209v-.07h.14v-.07h.209v-.069h.139v-.07h.209v-.07h.139v-.069h.14v-.07h.209v-.07h.139v-.069h.209v-.07h.209v-.07h.139v-.069h.209v-.07h.209v-.07h.209v-.069h.139v-.07h.209v-.07h.209v-.069h.14v-.07h.209v-.07h.209v-.069h.209v-.07h.139v-.07h.209v-.069h.209v-.07h.209v-.07h.209v-.069h.209v-.07h.209v-.07h.209v-.069h.278v-.07h.209v-.069h.209v-.07h.209v-.07h.209v-.069h.209v-.07h.209v-.07h.279v-.069h.209v-.07h.209v-.07h.278v-.069h.209v-.07h.279v-.07h.209v-.069h.279v-.07h.209v-.07h.278v-.069h.209v-.07h.279v-.07h.278v-.069h.279v-.07h.279v-.07h.278v-.069h.279v-.07h.279v-.07h.209v-.069h.278v-.07h.279v-.07h.278v-.069h.349v-.07h.348v-.07h.279v-.069h.348v-.07h.279v-.07h.348v-.069h.279v-.07h.348v-.07h.278v-.069h.349v-.07h.348v-.07h.418v-.069h.348v-.07h.349v-.069h.418v-.07h.348v-.07h.348v-.069h.418v-.07h.418v-.07h.418v-.069h.418v-.07h.488v-.07h.417v-.069h.488v-.07h.418v-.07h.418V54.3h.557v-.07h.488v-.07h.557v-.069h.557v-.07h.558v-.07h.557v-.069h.557v-.07h.627v-.07h.697v-.069h.696v-.07h.697v-.07h.696v-.069h.767v-.07h.905v-.07h.975v-.069h.906v-.07h.906v-.07h1.323v-.069h1.393v-.07h1.324v-.07h2.159v-.069h2.299v-.07h5.851v.07h.557v.07h.349v.07h.209v.07h.209v.069h.278v.07h.209v.07h.209v.069h.14v.07h.139v.07h.139v.069h.139v.07h.14v.07h.139v.069h.139v.07h.14v.07h.069v.069h.07v.07h.139v.07h.07v.069h.07v.07h.139v.07h.07v.069h.069v.07h.07v.069h.139v.07h.07v.139h.07v.07h.069v.07h.07v.069h.07v.07h.069v.07h.07v.069h.07v.07h.069v.07h.07v.139h.07v.07h.069v.139h.07v.07h.07v.139h.069v.07h.07v.139h.069v.139h.07v.14h.07v.208h.069v1.324h-.069v.836h-.07v.696h-.07v.697h-.069v.627h-.07v.557h-.069v.557h-.07v.488h-.07v.557h-.069v.488h-.07v.418h-.07v.487h-.069v.418h-.07v.418h-.07v.418h-.069v.418h-.07v.348h-.07v.418h-.069v.349h-.07v.348h-.07v.348h-.069v.348h-.07v.349h-.07v.348h-.069v.279h-.07v.348h-.07v.278h-.069v.349h-.07v.278h-.07v.28h-.069v.278h-.07v.278h-.07v.279h-.069v.279h-.07v.278h-.07v.21h-.069v.278h-.07v.278h-.07v.21h-.069v.278h-.07v.21h-.07v.208h-.069v.279h-.07v.209h-.07v.209h-.069v.209h-.07v.278h-.069v.21h-.07v.208h-.07v.21h-.069v.208h-.07v.14h-.07v.208h-.069v.21h-.07v.208h-.07v.21h-.069v.139h-.07v.209h-.07v.139h-.069v.209h-.07v.209h-.07v.14h-.069v.208h-.07v.14h-.07v.139h-.069v.209h-.07v.14h-.07v.138h-.069v.21h-.07v.139h-.07v.139h-.069v.14h-.07v.139h-.07v.209h-.069v.139h-.07v.14h-.07v.139h-.069v.139h-.07v.14h-.07v.138h-.069v.14h-.07v.14h-.07v.139h-.069v.07h-.07v.139h-.069v.139h-.07v.14h-.07v.069h-.069v.14h-.07v.138h-.07v.14h-.069v.07h-.07v.139h-.07v.139h-.069v.07h-.07v.139h-.07v.07h-.069v.139h-.07v.07h-.07v.139h-.069v.07h-.07v.139h-.07v.07h-.069v.139h-.07v.07h-.07v.07h-.069v.138h-.07v.07h-.07v.14h-.069v.07h-.07v.069h-.07v.07h-.069v.139h-.07v.07h-.07v.07h-.069v.069h-.07v.14h-.07v.069h-.069v.07h-.07v.069h-.07v.07h-.069v.07h-.07v.069h-.07v.07h-.069v.139h-.07v.07h-.069v.07h-.07v.069h-.07v.07h-.069v.07h-.07v.069h-.07v.07h-.069v.07h-.07v.069h-.07v.07h-.069v.07h-.07v.069h-.07v.07h-.069v.07h-.07v.069h-.07v.07h-.069v.07h-.07v.139h-.07v.07h-.069v.069h-.07v.07h-.07v.07h-.069v.069h-.07v.07h-.07v.07h-.069v.138h-.07v.07h-.07v.07h-.069v.07h-.07v.069h-.07v.14h-.069v.069h-.07v.07h-.07v.07h-.069v.069h-.07v.14h-.07v.069h-.069v.07h-.07v.07h-.069v.139h-.07v.07h-.07v.069h-.069v.07h-.07v.07h-.07v.139h-.069v.07h-.07v.069h-.07v.14h-.069v.069h-.07v.07h-.07v.139h-.069v.07h-.07v.07h-.07v.138h-.069v.07h-.07v.07h-.07v.14h-.069v.069h-.07v.07h-.07v.139h-.069v.07h-.07v.139h-.07v.07h-.069v.069h-.07v.14h-.07v.069h-.069v.14h-.07v.069h-.07v.14h-.069v.069h-.07v.14h-.07v.069h-.069v.14h-.07v.069h-.07v.07h-.069v.139h-.07v.07h-.07v.139h-.069v.07h-.07v.139h-.069v.07h-.07v.139h-.07v.07h-.069v.139h-.07v.07h-.07v.139h-.069v.139h-.07v.07h-.07v.139h-.069v.14h-.07v.069h-.07v.14h-.069v.069h-.07v.14h-.07v.139h-.069v.07h-.07v.139h-.07v.139h-.069v.07h-.07v.139h-.07v.14h-.069v.069h-.07v.14h-.07v.138h-.069v.07h-.07v.14h-.07v.139h-.069v.14h-.07v.069h-.07v.139h-.069v.14h-.07v.139h-.07v.139h-.069v.07h-.07v.139h-.07v.14h-.069v.139h-.07v.139h-.069v.07h-.07v.139h-.07v.14h-.069V97h-.07v.14h-.07v.14h-.069v.139h-.07v.139h-.07v.14h-.069v.138h-.07v.14h-.07v.14h-.069v.138h-.07v.07h-.07v.14h-.069v.139h-.07v.139h-.07v.14h-.069v.139h-.07v.139h-.07v.209h-.069v.14h-.07v.139h-.07v.139h-.069v.14h-.07v.138h-.07v.209h-.069v.14h-.07v.139h-.07v.139h-.069v.14h-.07v.139h-.07v.139h-.069v.209h-.07v.14h-.07v.139h-.069v.209h-.07v.139h-.069v.209h-.07v.14h-.07v.139h-.069v.209h-.07v.139h-.07v.209h-.069v.139h-.07v.14h-.07v.209h-.069v.139h-.07v.209h-.07v.209h-.069v.139h-.07v.209h-.07v.209h-.069v.209h-.07v.14h-.07v.209h-.069v.209h-.07v.208h-.07v.14h-.069v.209h-.07v.209h-.07v.209h-.069v.278h-.07v.209h-.07v.209h-.069v.209h-.07v.279h-.07v.209h-.069v.209h-.07v.209h-.07v.278h-.069v.279h-.07v.279h-.07v.278h-.069v.279h-.07v.279h-.07v.278h-.069v.279h-.07v.348h-.069v.418h-.07v.348h-.07v.418h-.069v.349h-.07v.487h-.07v.697h-.069v.696h-.07v2.369h.07v.766h.069v.348h.07v.349h.07v.836h.069v.975h-.069v.836h-.07v.487h-.07v.279h-.069v.279h-.07v.278h-.07v.279h-.069v.278h-.07v.14h-.07v.209h-.069v.209h-.07v.139h-.07v.209h-.069v.139h-.07v.209h-.07v.14h-.069v.209h-.07v.139h-.07v.07h-.069v.139h-.07v.139h-.07v.139h-.069v.14h-.07v.139h-.07v.139h-.069v.14h-.07v.139h-.07v.139h-.069v.07h-.07v.139h-.07v.07h-.069v.139h-.07v.07h-.07v.139h-.069v.07h-.07v.139h-.069v.14h-.07v.069h-.07v.14h-.069v.069h-.07v.14h-.07v.069h-.069v.07h-.07v.139h-.07v.07h-.069v.069h-.07v.14h-.07v.069h-.069v.07h-.07v.139h-.07v.07h-.069v.07h-.07v.139h-.07v.07h-.069v.069h-.07v.14h-.07v.069h-.069v.07h-.07v.07h-.07v.069h-.069v.07h-.07v.07h-.07v.139h-.069v.07h-.07v.069h-.07v.07h-.069v.07h-.07v.069h-.07v.07h-.069v.139h-.07v.07h-.07v.07h-.069v.069h-.07v.07h-.07v.07h-.069v.069h-.07v.07h-.069v.069h-.07v.07h-.07v.07h-.069v.069h-.07v.07h-.07v.07h-.069v.069h-.07v.07h-.07v.07h-.069v.069h-.07v.07h-.07v.07h-.069v.069h-.07v.07h-.07v.07h-.069v.069h-.07v.07h-.07v.07h-.139v.069h-.07v.07h-.069v.07h-.07v.069h-.07v.07h-.069v.07h-.07v.069h-.07v.07h-.069v.07h-.14v.069h-.069v.07h-.07v.07h-.07v.069h-.069v.07h-.14v.07h-.069v.069h-.07v.07h-.069v.07h-.14v.069h-.069v.07h-.07v.07h-.07v.069h-.139v.07h-.07v.069h-.069v.07h-.14v.07h-.069v.069h-.07v.07h-.139v.07h-.07v.069h-.139v.07h-.07v.07h-.07v.069h-.139v.07h-.07v.07h-.139v.069h-.07v.07h-.139v.07h-.07v.069h-.139v.07h-.139v.07h-.07v.069h-.139v.07h-.139v.07h-.07v.069h-.139v.07h-.14v.07h-.139v.069h-.139v.07h-.14v.07h-.139v.069h-.139v.07h-.14v.07h-.139v.069h-.209v.07h-.139v.07h-.209v.069h-.209v.07h-.279v.07h-.627v.069h-.278v.279h.069v.069h.07v.14h.07v.069h.069v.07h.07v.07h.07v.069h.069v.14h.07v.069h.069v.07h.07v.07h.07v.069h.069v.07h.07v.07h.07v.069h.069v.14h.07v.069h.07v.07h.069v.07h.07v.069h.07v.07h.069v.139h.07v.07h.07v.07h.069v.069h.07v.07h.07v.139h.069v.07h.07v.07h.07v.069h.069v.14h.07v.069h.07v.07h.069v.139h.07v.07h.07v.069h.069v.14h.07v.069h.07v.14h.069v.069h.07v.14h.07v.069h.069v.14h.07v.069h.07v.14h.069v.069h.07v.14h.07v.139h.069v.07h.07v.139h.069v.139h.07v.07h.07v.139h.069v.14h.07v.139h.07v.139h.069v.139h.07v.14h.07v.139h.069v.139h.07v.14h.07v.139h.069v.139h.07v.14h.07v.209h.069v.139h.07v.209h.07v.139h.069v.209h.07v.14h.07v.209h.069v.209h.07v.208h.07v.209h.069v.209h.07v.209h.07v.279h.069v.279h.07v.209h.07v.278h.069v.349h.07v.348h.07v.348h.069v.418h.07v.418h.07v.488h.069v.696h.07v.975h.069v2.856h-.069v.906h-.07v.836h-.069v.488h-.07v.557h-.07v.487h-.069v.418h-.07v.349h-.07v.418h-.069v.348h-.07v.418h-.07v.278h-.069v.279h-.07v.279h-.07v.348h-.069v.279h-.07v.278h-.07v.279h-.069v.209h-.07v.279h-.07v.278h-.069v.209h-.07v.279h-.07v.209h-.069v.278h-.07v.209h-.07v.209h-.069v.209h-.07v.209h-.07v.209h-.069v.209h-.07v.209h-.07v.209h-.069v.209h-.07v.209h-.07v.209h-.069v.209h-.07v.139h-.07v.209h-.069v.209h-.07v.14h-.069v.209h-.07v.209h-.07v.209h-.069v.139h-.07v.209h-.07v.139h-.069v.209h-.07v.139h-.07v.209h-.069v.14h-.07v.209h-.07v.139h-.069v.139h-.07v.209h-.07v.14h-.069v.139h-.07v.209h-.07v.139h-.069v.209h-.07v.14h-.07v.139h-.069v.139h-.07v.209h-.07v.139h-.069v.14h-.07v.139h-.07v.209h-.069v.139h-.07v.14h-.07v.139h-.069v.209h-.07v.139h-.07v.14h-.069v.139h-.07v.139h-.07v.14h-.069v.139h-.07v.209h-.07v.139h-.069v.139h-.07v.14h-.069v.139h-.07v.139h-.07v.14h-.069v.139h-.07v.139h-.07v.14h-.069v.139h-.07v.139h-.07v.14h-.069v.139h-.07v.139h-.07v.14h-.069v.139h-.07v.139h-.07v.14h-.069v.139h-.07v.139h-.07v.07h-.069v.139h-.07v.139h-.07v.14h-.069v.139h-.07v.139h-.07v.07h-.069v.139h-.07v.14h-.07v.139h-.069v.139h-.07v.07h-.07v.139h-.069v.14h-.07v.139h-.07v.07h-.069v.139h-.07v.139h-.07v.14h-.069v.069h-.07v.14h-.069v.139h-.07v.07h-.07v.139h-.069v.139h-.07v.07h-.07v.139h-.069v.139h-.07v.07h-.07v.139h-.069v.07h-.07v.139h-.07v.07h-.069v.139h-.07v.14h-.07v.069h-.069v.14h-.07v.069h-.07v.14h-.069v.069h-.07v.14h-.07v.069h-.069v.14h-.07v.069h-.07v.14h-.069v.069h-.07v.14h-.07v.069h-.069v.07h-.07v.139h-.07v.07h-.069v.139h-.07v.07h-.07v.139h-.069v.07h-.07v.069h-.07v.14h-.069v.069h-.07v.07h-.07v.139h-.069v.07h-.07v.07h-.069v.139h-.07v.07h-.07v.069h-.069v.14h-.07v.069h-.07v.07h-.069v.139h-.07v.07h-.07v.07h-.069v.069h-.07v.14h-.07v.069h-.069v.07h-.07v.07h-.07v.069h-.069v.14h-.07v.069h-.07v.07h-.069v.069h-.07v.07h-.07v.139h-.069v.07h-.07v.07h-.07v.069h-.069v.07h-.07v.07h-.07v.069h-.069v.14h-.07v.069h-.07v.07h-.069v.07h-.07v.069h-.07v.07h-.069v.07h-.07v.069h-.07v.07h-.069v.07h-.07v.069h-.069v.07h-.07v.07h-.07v.139h-.069v.07h-.07v.069h-.07v.07h-.069v.07h-.07v.069h-.07v.07h-.139v.07h-.07v.069h-.069v.07h-.07v.07h-.07v.069h-.069v.07h-.07v.069h-.07v.07h-.069v.07h-.07v.069h-.07v.07h-.069v.07h-.07v.069h-.139v.07h-.07v.07h-.07v.069h-.069v.07h-.07v.07h-.07v.069h-.069v.07h-.14v.07h-.069v.069h-.07v.07h-.07v.07h-.139v.069h-.07v.07h-.069v.07h-.07v.069h-.139v.07h-.07v.07h-.069v.069h-.14v.07h-.069v.07h-.14v.069h-.069v.07h-.07v.07h-.139v.069h-.07v.07h-.139v.07h-.07v.069h-.139v.07h-.07v.07h-.139v.069h-.07v.07h-.139v.07h-.14v.069h-.069v.07h-.14v.069h-.139v.07h-.07v.07h-.139v.069h-.139v.07h-.139v.07h-.14v.069h-.139v.07h-.139v.07h-.14v.069h-.139v.07h-.139v.07h-.14v.069h-.139v.07h-.209v.07h-.139v.069h-.209v.07h-.14v.07h-.209v.069h-.209v.07h-.209v.07h-.208v.069h-.209v.07h-.279v.07h-.279v.069h-.278v.07h-.349v.07h-.487v.069h-.627v.07"/>
    </g>
  </g>
  <defs>
    <linearGradient id="c" x1="-14.693" x2="-14.693" y1="194.373" y2="5.448" gradientUnits="userSpaceOnUse">
      <stop stop-color="#366AB2"/>
      <stop offset=".991" stop-color="#01ABED"/>
      <stop offset="1" stop-color="#01ABED"/>
    </linearGradient>
  </defs>
</svg>
