<svg xmlns="http://www.w3.org/2000/svg" width="200" height="200" fill="none">
  <g fill="#464342" clip-path="url(#a)">
    <path d="M14.16 99.61c0 33.824 19.656 63.055 48.16 76.907L21.558 64.833a85.128 85.128 0 0 0-7.399 34.777Zm143.141-4.313c0-10.56-3.794-17.874-7.047-23.567-4.332-7.039-8.392-13-8.392-20.039 0-7.855 5.958-15.168 14.349-15.168.379 0 .739.048 1.108.069-15.203-13.929-35.459-22.433-57.706-22.433-29.854 0-56.119 15.317-71.398 38.517 2.005.06 3.894.103 5.499.103 8.938 0 22.774-1.085 22.774-1.085 4.606-.271 5.15 6.495.548 7.04 0 0-4.63.544-9.78.814l31.118 92.561 18.7-56.086-13.313-36.478c-4.602-.27-8.96-.815-8.96-.815-4.606-.27-4.066-7.31.539-7.039 0 0 14.112 1.085 22.509 1.085 8.936 0 22.774-1.085 22.774-1.085 4.61-.272 5.151 6.494.548 7.039 0 0-4.639.545-9.781.815l30.882 91.86 8.523-28.483c3.695-11.82 6.506-20.309 6.506-27.624Z"/>
    <path d="m101.112 107.085-25.639 74.502a85.465 85.465 0 0 0 24.14 3.481c9.951 0 19.494-1.72 28.377-4.844a7.499 7.499 0 0 1-.608-1.177l-26.27-71.962Zm73.483-48.474c.367 2.722.576 5.644.576 8.787 0 8.672-1.62 18.42-6.498 30.609l-26.102 75.468c25.404-14.815 42.492-42.338 42.492-73.863.002-14.858-3.793-28.828-10.468-41Z"/>
    <path d="M99.613 0C44.688 0 0 44.685 0 99.61c0 54.931 44.688 99.614 99.613 99.614 54.924 0 99.618-44.683 99.618-99.614C199.229 44.685 154.537 0 99.613 0Zm0 194.659c-52.407 0-95.046-42.639-95.046-95.05 0-52.406 42.638-95.042 95.046-95.042 52.405 0 95.041 42.636 95.041 95.043 0 52.41-42.636 95.049-95.041 95.049Z"/>
  </g>
  <defs>
    <clipPath id="a">
      <path fill="#fff" d="M0 0h200v200H0z"/>
    </clipPath>
  </defs>
</svg>
